%TF.GenerationSoftware,KiCad,Pcbnew,9.0.7*%
%TF.CreationDate,2026-02-05T13:10:28+00:00*%
%TF.ProjectId,dmx_rec,646d785f-7265-4632-9e6b-696361645f70,rev?*%
%TF.SameCoordinates,Original*%
%TF.FileFunction,Legend,Bot*%
%TF.FilePolarity,Positive*%
%FSLAX46Y46*%
G04 Gerber Fmt 4.6, Leading zero omitted, Abs format (unit mm)*
G04 Created by KiCad (PCBNEW 9.0.7) date 2026-02-05 13:10:28*
%MOMM*%
%LPD*%
G01*
G04 APERTURE LIST*
%ADD10C,0.150000*%
%ADD11C,0.100000*%
G04 APERTURE END LIST*
D10*
X98591792Y-97369819D02*
X98925125Y-96893628D01*
X99163220Y-97369819D02*
X99163220Y-96369819D01*
X99163220Y-96369819D02*
X98782268Y-96369819D01*
X98782268Y-96369819D02*
X98687030Y-96417438D01*
X98687030Y-96417438D02*
X98639411Y-96465057D01*
X98639411Y-96465057D02*
X98591792Y-96560295D01*
X98591792Y-96560295D02*
X98591792Y-96703152D01*
X98591792Y-96703152D02*
X98639411Y-96798390D01*
X98639411Y-96798390D02*
X98687030Y-96846009D01*
X98687030Y-96846009D02*
X98782268Y-96893628D01*
X98782268Y-96893628D02*
X99163220Y-96893628D01*
X98163220Y-96846009D02*
X97829887Y-96846009D01*
X97687030Y-97369819D02*
X98163220Y-97369819D01*
X98163220Y-97369819D02*
X98163220Y-96369819D01*
X98163220Y-96369819D02*
X97687030Y-96369819D01*
X97258458Y-97369819D02*
X97258458Y-96369819D01*
X97258458Y-96369819D02*
X97020363Y-96369819D01*
X97020363Y-96369819D02*
X96877506Y-96417438D01*
X96877506Y-96417438D02*
X96782268Y-96512676D01*
X96782268Y-96512676D02*
X96734649Y-96607914D01*
X96734649Y-96607914D02*
X96687030Y-96798390D01*
X96687030Y-96798390D02*
X96687030Y-96941247D01*
X96687030Y-96941247D02*
X96734649Y-97131723D01*
X96734649Y-97131723D02*
X96782268Y-97226961D01*
X96782268Y-97226961D02*
X96877506Y-97322200D01*
X96877506Y-97322200D02*
X97020363Y-97369819D01*
X97020363Y-97369819D02*
X97258458Y-97369819D01*
X99258458Y-91369819D02*
X99020363Y-92369819D01*
X99020363Y-92369819D02*
X98829887Y-91655533D01*
X98829887Y-91655533D02*
X98639411Y-92369819D01*
X98639411Y-92369819D02*
X98401316Y-91369819D01*
X98020363Y-92369819D02*
X98020363Y-91369819D01*
X98020363Y-91846009D02*
X97448935Y-91846009D01*
X97448935Y-92369819D02*
X97448935Y-91369819D01*
X96972744Y-92369819D02*
X96972744Y-91369819D01*
X96639411Y-91369819D02*
X96067983Y-91369819D01*
X96353697Y-92369819D02*
X96353697Y-91369819D01*
X95734649Y-91846009D02*
X95401316Y-91846009D01*
X95258459Y-92369819D02*
X95734649Y-92369819D01*
X95734649Y-92369819D02*
X95734649Y-91369819D01*
X95734649Y-91369819D02*
X95258459Y-91369819D01*
X98761904Y-86502438D02*
X98857142Y-86454819D01*
X98857142Y-86454819D02*
X98999999Y-86454819D01*
X98999999Y-86454819D02*
X99142856Y-86502438D01*
X99142856Y-86502438D02*
X99238094Y-86597676D01*
X99238094Y-86597676D02*
X99285713Y-86692914D01*
X99285713Y-86692914D02*
X99333332Y-86883390D01*
X99333332Y-86883390D02*
X99333332Y-87026247D01*
X99333332Y-87026247D02*
X99285713Y-87216723D01*
X99285713Y-87216723D02*
X99238094Y-87311961D01*
X99238094Y-87311961D02*
X99142856Y-87407200D01*
X99142856Y-87407200D02*
X98999999Y-87454819D01*
X98999999Y-87454819D02*
X98904761Y-87454819D01*
X98904761Y-87454819D02*
X98761904Y-87407200D01*
X98761904Y-87407200D02*
X98714285Y-87359580D01*
X98714285Y-87359580D02*
X98714285Y-87026247D01*
X98714285Y-87026247D02*
X98904761Y-87026247D01*
X98285713Y-87454819D02*
X98285713Y-86454819D01*
X98285713Y-86454819D02*
X97714285Y-87454819D01*
X97714285Y-87454819D02*
X97714285Y-86454819D01*
X97238094Y-87454819D02*
X97238094Y-86454819D01*
X97238094Y-86454819D02*
X96999999Y-86454819D01*
X96999999Y-86454819D02*
X96857142Y-86502438D01*
X96857142Y-86502438D02*
X96761904Y-86597676D01*
X96761904Y-86597676D02*
X96714285Y-86692914D01*
X96714285Y-86692914D02*
X96666666Y-86883390D01*
X96666666Y-86883390D02*
X96666666Y-87026247D01*
X96666666Y-87026247D02*
X96714285Y-87216723D01*
X96714285Y-87216723D02*
X96761904Y-87311961D01*
X96761904Y-87311961D02*
X96857142Y-87407200D01*
X96857142Y-87407200D02*
X96999999Y-87454819D01*
X96999999Y-87454819D02*
X97238094Y-87454819D01*
X104238094Y-92067354D02*
X103761904Y-92067354D01*
X104333332Y-92353069D02*
X103999999Y-91353069D01*
X103999999Y-91353069D02*
X103666666Y-92353069D01*
X103928571Y-96829259D02*
X103785714Y-96876878D01*
X103785714Y-96876878D02*
X103738095Y-96924497D01*
X103738095Y-96924497D02*
X103690476Y-97019735D01*
X103690476Y-97019735D02*
X103690476Y-97162592D01*
X103690476Y-97162592D02*
X103738095Y-97257830D01*
X103738095Y-97257830D02*
X103785714Y-97305450D01*
X103785714Y-97305450D02*
X103880952Y-97353069D01*
X103880952Y-97353069D02*
X104261904Y-97353069D01*
X104261904Y-97353069D02*
X104261904Y-96353069D01*
X104261904Y-96353069D02*
X103928571Y-96353069D01*
X103928571Y-96353069D02*
X103833333Y-96400688D01*
X103833333Y-96400688D02*
X103785714Y-96448307D01*
X103785714Y-96448307D02*
X103738095Y-96543545D01*
X103738095Y-96543545D02*
X103738095Y-96638783D01*
X103738095Y-96638783D02*
X103785714Y-96734021D01*
X103785714Y-96734021D02*
X103833333Y-96781640D01*
X103833333Y-96781640D02*
X103928571Y-96829259D01*
X103928571Y-96829259D02*
X104261904Y-96829259D01*
D11*
X138566390Y-89738094D02*
X138566390Y-89404761D01*
X138042580Y-89261904D02*
X138042580Y-89738094D01*
X138042580Y-89738094D02*
X139042580Y-89738094D01*
X139042580Y-89738094D02*
X139042580Y-89261904D01*
X138090200Y-88880951D02*
X138042580Y-88738094D01*
X138042580Y-88738094D02*
X138042580Y-88499999D01*
X138042580Y-88499999D02*
X138090200Y-88404761D01*
X138090200Y-88404761D02*
X138137819Y-88357142D01*
X138137819Y-88357142D02*
X138233057Y-88309523D01*
X138233057Y-88309523D02*
X138328295Y-88309523D01*
X138328295Y-88309523D02*
X138423533Y-88357142D01*
X138423533Y-88357142D02*
X138471152Y-88404761D01*
X138471152Y-88404761D02*
X138518771Y-88499999D01*
X138518771Y-88499999D02*
X138566390Y-88690475D01*
X138566390Y-88690475D02*
X138614009Y-88785713D01*
X138614009Y-88785713D02*
X138661628Y-88833332D01*
X138661628Y-88833332D02*
X138756866Y-88880951D01*
X138756866Y-88880951D02*
X138852104Y-88880951D01*
X138852104Y-88880951D02*
X138947342Y-88833332D01*
X138947342Y-88833332D02*
X138994961Y-88785713D01*
X138994961Y-88785713D02*
X139042580Y-88690475D01*
X139042580Y-88690475D02*
X139042580Y-88452380D01*
X139042580Y-88452380D02*
X138994961Y-88309523D01*
X138042580Y-87880951D02*
X139042580Y-87880951D01*
X139042580Y-87880951D02*
X139042580Y-87499999D01*
X139042580Y-87499999D02*
X138994961Y-87404761D01*
X138994961Y-87404761D02*
X138947342Y-87357142D01*
X138947342Y-87357142D02*
X138852104Y-87309523D01*
X138852104Y-87309523D02*
X138709247Y-87309523D01*
X138709247Y-87309523D02*
X138614009Y-87357142D01*
X138614009Y-87357142D02*
X138566390Y-87404761D01*
X138566390Y-87404761D02*
X138518771Y-87499999D01*
X138518771Y-87499999D02*
X138518771Y-87880951D01*
X139042580Y-86976189D02*
X139042580Y-86357142D01*
X139042580Y-86357142D02*
X138661628Y-86690475D01*
X138661628Y-86690475D02*
X138661628Y-86547618D01*
X138661628Y-86547618D02*
X138614009Y-86452380D01*
X138614009Y-86452380D02*
X138566390Y-86404761D01*
X138566390Y-86404761D02*
X138471152Y-86357142D01*
X138471152Y-86357142D02*
X138233057Y-86357142D01*
X138233057Y-86357142D02*
X138137819Y-86404761D01*
X138137819Y-86404761D02*
X138090200Y-86452380D01*
X138090200Y-86452380D02*
X138042580Y-86547618D01*
X138042580Y-86547618D02*
X138042580Y-86833332D01*
X138042580Y-86833332D02*
X138090200Y-86928570D01*
X138090200Y-86928570D02*
X138137819Y-86976189D01*
X138947342Y-85976189D02*
X138994961Y-85928570D01*
X138994961Y-85928570D02*
X139042580Y-85833332D01*
X139042580Y-85833332D02*
X139042580Y-85595237D01*
X139042580Y-85595237D02*
X138994961Y-85499999D01*
X138994961Y-85499999D02*
X138947342Y-85452380D01*
X138947342Y-85452380D02*
X138852104Y-85404761D01*
X138852104Y-85404761D02*
X138756866Y-85404761D01*
X138756866Y-85404761D02*
X138614009Y-85452380D01*
X138614009Y-85452380D02*
X138042580Y-86023808D01*
X138042580Y-86023808D02*
X138042580Y-85404761D01*
X138423533Y-84976189D02*
X138423533Y-84214285D01*
X138137819Y-83166666D02*
X138090200Y-83214285D01*
X138090200Y-83214285D02*
X138042580Y-83357142D01*
X138042580Y-83357142D02*
X138042580Y-83452380D01*
X138042580Y-83452380D02*
X138090200Y-83595237D01*
X138090200Y-83595237D02*
X138185438Y-83690475D01*
X138185438Y-83690475D02*
X138280676Y-83738094D01*
X138280676Y-83738094D02*
X138471152Y-83785713D01*
X138471152Y-83785713D02*
X138614009Y-83785713D01*
X138614009Y-83785713D02*
X138804485Y-83738094D01*
X138804485Y-83738094D02*
X138899723Y-83690475D01*
X138899723Y-83690475D02*
X138994961Y-83595237D01*
X138994961Y-83595237D02*
X139042580Y-83452380D01*
X139042580Y-83452380D02*
X139042580Y-83357142D01*
X139042580Y-83357142D02*
X138994961Y-83214285D01*
X138994961Y-83214285D02*
X138947342Y-83166666D01*
X139042580Y-82309523D02*
X139042580Y-82499999D01*
X139042580Y-82499999D02*
X138994961Y-82595237D01*
X138994961Y-82595237D02*
X138947342Y-82642856D01*
X138947342Y-82642856D02*
X138804485Y-82738094D01*
X138804485Y-82738094D02*
X138614009Y-82785713D01*
X138614009Y-82785713D02*
X138233057Y-82785713D01*
X138233057Y-82785713D02*
X138137819Y-82738094D01*
X138137819Y-82738094D02*
X138090200Y-82690475D01*
X138090200Y-82690475D02*
X138042580Y-82595237D01*
X138042580Y-82595237D02*
X138042580Y-82404761D01*
X138042580Y-82404761D02*
X138090200Y-82309523D01*
X138090200Y-82309523D02*
X138137819Y-82261904D01*
X138137819Y-82261904D02*
X138233057Y-82214285D01*
X138233057Y-82214285D02*
X138471152Y-82214285D01*
X138471152Y-82214285D02*
X138566390Y-82261904D01*
X138566390Y-82261904D02*
X138614009Y-82309523D01*
X138614009Y-82309523D02*
X138661628Y-82404761D01*
X138661628Y-82404761D02*
X138661628Y-82595237D01*
X138661628Y-82595237D02*
X138614009Y-82690475D01*
X138614009Y-82690475D02*
X138566390Y-82738094D01*
X138566390Y-82738094D02*
X138471152Y-82785713D01*
%TO.C,ESP32-C6*%
X108947800Y-100965800D02*
X108947800Y-82965800D01*
X134947800Y-100965800D02*
X134947800Y-82965800D01*
X136979800Y-95940400D02*
X134979800Y-95940400D01*
X134979800Y-87940400D01*
X136979800Y-87940400D01*
X136979800Y-95940400D01*
%TD*%
M02*
