%TF.GenerationSoftware,KiCad,Pcbnew,9.0.7*%
%TF.CreationDate,2026-02-05T13:10:28+00:00*%
%TF.ProjectId,dmx_rec,646d785f-7265-4632-9e6b-696361645f70,rev?*%
%TF.SameCoordinates,Original*%
%TF.FileFunction,Legend,Top*%
%TF.FilePolarity,Positive*%
%FSLAX46Y46*%
G04 Gerber Fmt 4.6, Leading zero omitted, Abs format (unit mm)*
G04 Created by KiCad (PCBNEW 9.0.7) date 2026-02-05 13:10:28*
%MOMM*%
%LPD*%
G01*
G04 APERTURE LIST*
%ADD10C,0.000000*%
%ADD11C,0.100000*%
%ADD12C,0.120000*%
G04 APERTURE END LIST*
D10*
G36*
X99675000Y-92735417D02*
G01*
X99675000Y-93264583D01*
X97822917Y-93000000D01*
X97822917Y-94322917D01*
X94383334Y-91941667D01*
X94383334Y-91412500D01*
X96500000Y-91677084D01*
X96500000Y-90089583D01*
X99675000Y-92735417D01*
G37*
D11*
X93737524Y-83666666D02*
X93737524Y-84238094D01*
X92737524Y-83952380D02*
X93737524Y-83952380D01*
X92737524Y-84571428D02*
X93737524Y-84571428D01*
X92737524Y-84999999D02*
X93261334Y-84999999D01*
X93261334Y-84999999D02*
X93356572Y-84952380D01*
X93356572Y-84952380D02*
X93404191Y-84857142D01*
X93404191Y-84857142D02*
X93404191Y-84714285D01*
X93404191Y-84714285D02*
X93356572Y-84619047D01*
X93356572Y-84619047D02*
X93308953Y-84571428D01*
X92737524Y-85619047D02*
X92785144Y-85523809D01*
X92785144Y-85523809D02*
X92832763Y-85476190D01*
X92832763Y-85476190D02*
X92928001Y-85428571D01*
X92928001Y-85428571D02*
X93213715Y-85428571D01*
X93213715Y-85428571D02*
X93308953Y-85476190D01*
X93308953Y-85476190D02*
X93356572Y-85523809D01*
X93356572Y-85523809D02*
X93404191Y-85619047D01*
X93404191Y-85619047D02*
X93404191Y-85761904D01*
X93404191Y-85761904D02*
X93356572Y-85857142D01*
X93356572Y-85857142D02*
X93308953Y-85904761D01*
X93308953Y-85904761D02*
X93213715Y-85952380D01*
X93213715Y-85952380D02*
X92928001Y-85952380D01*
X92928001Y-85952380D02*
X92832763Y-85904761D01*
X92832763Y-85904761D02*
X92785144Y-85857142D01*
X92785144Y-85857142D02*
X92737524Y-85761904D01*
X92737524Y-85761904D02*
X92737524Y-85619047D01*
X92737524Y-86380952D02*
X93404191Y-86380952D01*
X93213715Y-86380952D02*
X93308953Y-86428571D01*
X93308953Y-86428571D02*
X93356572Y-86476190D01*
X93356572Y-86476190D02*
X93404191Y-86571428D01*
X93404191Y-86571428D02*
X93404191Y-86666666D01*
X92737524Y-87000000D02*
X93737524Y-87000000D01*
X93737524Y-87000000D02*
X93737524Y-87238095D01*
X93737524Y-87238095D02*
X93689905Y-87380952D01*
X93689905Y-87380952D02*
X93594667Y-87476190D01*
X93594667Y-87476190D02*
X93499429Y-87523809D01*
X93499429Y-87523809D02*
X93308953Y-87571428D01*
X93308953Y-87571428D02*
X93166096Y-87571428D01*
X93166096Y-87571428D02*
X92975620Y-87523809D01*
X92975620Y-87523809D02*
X92880382Y-87476190D01*
X92880382Y-87476190D02*
X92785144Y-87380952D01*
X92785144Y-87380952D02*
X92737524Y-87238095D01*
X92737524Y-87238095D02*
X92737524Y-87000000D01*
X92737524Y-88000000D02*
X93737524Y-88000000D01*
X93737524Y-88000000D02*
X93023239Y-88333333D01*
X93023239Y-88333333D02*
X93737524Y-88666666D01*
X93737524Y-88666666D02*
X92737524Y-88666666D01*
X93737524Y-89047619D02*
X92737524Y-89714285D01*
X93737524Y-89714285D02*
X92737524Y-89047619D01*
X92785144Y-90809524D02*
X92737524Y-90904762D01*
X92737524Y-90904762D02*
X92737524Y-91095238D01*
X92737524Y-91095238D02*
X92785144Y-91190476D01*
X92785144Y-91190476D02*
X92880382Y-91238095D01*
X92880382Y-91238095D02*
X92928001Y-91238095D01*
X92928001Y-91238095D02*
X93023239Y-91190476D01*
X93023239Y-91190476D02*
X93070858Y-91095238D01*
X93070858Y-91095238D02*
X93070858Y-90952381D01*
X93070858Y-90952381D02*
X93118477Y-90857143D01*
X93118477Y-90857143D02*
X93213715Y-90809524D01*
X93213715Y-90809524D02*
X93261334Y-90809524D01*
X93261334Y-90809524D02*
X93356572Y-90857143D01*
X93356572Y-90857143D02*
X93404191Y-90952381D01*
X93404191Y-90952381D02*
X93404191Y-91095238D01*
X93404191Y-91095238D02*
X93356572Y-91190476D01*
X93023239Y-91619048D02*
X93023239Y-92095238D01*
X92737524Y-91523810D02*
X93737524Y-91857143D01*
X93737524Y-91857143D02*
X92737524Y-92190476D01*
X92832763Y-93095238D02*
X92785144Y-93047619D01*
X92785144Y-93047619D02*
X92737524Y-92904762D01*
X92737524Y-92904762D02*
X92737524Y-92809524D01*
X92737524Y-92809524D02*
X92785144Y-92666667D01*
X92785144Y-92666667D02*
X92880382Y-92571429D01*
X92880382Y-92571429D02*
X92975620Y-92523810D01*
X92975620Y-92523810D02*
X93166096Y-92476191D01*
X93166096Y-92476191D02*
X93308953Y-92476191D01*
X93308953Y-92476191D02*
X93499429Y-92523810D01*
X93499429Y-92523810D02*
X93594667Y-92571429D01*
X93594667Y-92571429D02*
X93689905Y-92666667D01*
X93689905Y-92666667D02*
X93737524Y-92809524D01*
X93737524Y-92809524D02*
X93737524Y-92904762D01*
X93737524Y-92904762D02*
X93689905Y-93047619D01*
X93689905Y-93047619D02*
X93642286Y-93095238D01*
X92737524Y-93523810D02*
X93737524Y-93523810D01*
X93737524Y-93523810D02*
X92737524Y-94095238D01*
X92737524Y-94095238D02*
X93737524Y-94095238D01*
X93404191Y-95190477D02*
X93404191Y-95571429D01*
X93737524Y-95333334D02*
X92880382Y-95333334D01*
X92880382Y-95333334D02*
X92785144Y-95380953D01*
X92785144Y-95380953D02*
X92737524Y-95476191D01*
X92737524Y-95476191D02*
X92737524Y-95571429D01*
X92737524Y-96047620D02*
X92785144Y-95952382D01*
X92785144Y-95952382D02*
X92832763Y-95904763D01*
X92832763Y-95904763D02*
X92928001Y-95857144D01*
X92928001Y-95857144D02*
X93213715Y-95857144D01*
X93213715Y-95857144D02*
X93308953Y-95904763D01*
X93308953Y-95904763D02*
X93356572Y-95952382D01*
X93356572Y-95952382D02*
X93404191Y-96047620D01*
X93404191Y-96047620D02*
X93404191Y-96190477D01*
X93404191Y-96190477D02*
X93356572Y-96285715D01*
X93356572Y-96285715D02*
X93308953Y-96333334D01*
X93308953Y-96333334D02*
X93213715Y-96380953D01*
X93213715Y-96380953D02*
X92928001Y-96380953D01*
X92928001Y-96380953D02*
X92832763Y-96333334D01*
X92832763Y-96333334D02*
X92785144Y-96285715D01*
X92785144Y-96285715D02*
X92737524Y-96190477D01*
X92737524Y-96190477D02*
X92737524Y-96047620D01*
X92737524Y-97571430D02*
X93737524Y-97571430D01*
X93737524Y-97571430D02*
X93737524Y-97809525D01*
X93737524Y-97809525D02*
X93689905Y-97952382D01*
X93689905Y-97952382D02*
X93594667Y-98047620D01*
X93594667Y-98047620D02*
X93499429Y-98095239D01*
X93499429Y-98095239D02*
X93308953Y-98142858D01*
X93308953Y-98142858D02*
X93166096Y-98142858D01*
X93166096Y-98142858D02*
X92975620Y-98095239D01*
X92975620Y-98095239D02*
X92880382Y-98047620D01*
X92880382Y-98047620D02*
X92785144Y-97952382D01*
X92785144Y-97952382D02*
X92737524Y-97809525D01*
X92737524Y-97809525D02*
X92737524Y-97571430D01*
X92737524Y-98571430D02*
X93737524Y-98571430D01*
X93737524Y-98571430D02*
X93023239Y-98904763D01*
X93023239Y-98904763D02*
X93737524Y-99238096D01*
X93737524Y-99238096D02*
X92737524Y-99238096D01*
X93737524Y-99619049D02*
X92737524Y-100285715D01*
X93737524Y-100285715D02*
X92737524Y-99619049D01*
X91651390Y-88238095D02*
X91603771Y-88380952D01*
X91603771Y-88380952D02*
X91556152Y-88428571D01*
X91556152Y-88428571D02*
X91460914Y-88476190D01*
X91460914Y-88476190D02*
X91318057Y-88476190D01*
X91318057Y-88476190D02*
X91222819Y-88428571D01*
X91222819Y-88428571D02*
X91175200Y-88380952D01*
X91175200Y-88380952D02*
X91127580Y-88285714D01*
X91127580Y-88285714D02*
X91127580Y-87904762D01*
X91127580Y-87904762D02*
X92127580Y-87904762D01*
X92127580Y-87904762D02*
X92127580Y-88238095D01*
X92127580Y-88238095D02*
X92079961Y-88333333D01*
X92079961Y-88333333D02*
X92032342Y-88380952D01*
X92032342Y-88380952D02*
X91937104Y-88428571D01*
X91937104Y-88428571D02*
X91841866Y-88428571D01*
X91841866Y-88428571D02*
X91746628Y-88380952D01*
X91746628Y-88380952D02*
X91699009Y-88333333D01*
X91699009Y-88333333D02*
X91651390Y-88238095D01*
X91651390Y-88238095D02*
X91651390Y-87904762D01*
X91127580Y-88904762D02*
X91794247Y-88904762D01*
X91603771Y-88904762D02*
X91699009Y-88952381D01*
X91699009Y-88952381D02*
X91746628Y-89000000D01*
X91746628Y-89000000D02*
X91794247Y-89095238D01*
X91794247Y-89095238D02*
X91794247Y-89190476D01*
X91127580Y-89523810D02*
X91794247Y-89523810D01*
X92127580Y-89523810D02*
X92079961Y-89476191D01*
X92079961Y-89476191D02*
X92032342Y-89523810D01*
X92032342Y-89523810D02*
X92079961Y-89571429D01*
X92079961Y-89571429D02*
X92127580Y-89523810D01*
X92127580Y-89523810D02*
X92032342Y-89523810D01*
X91127580Y-90428571D02*
X92127580Y-90428571D01*
X91175200Y-90428571D02*
X91127580Y-90333333D01*
X91127580Y-90333333D02*
X91127580Y-90142857D01*
X91127580Y-90142857D02*
X91175200Y-90047619D01*
X91175200Y-90047619D02*
X91222819Y-90000000D01*
X91222819Y-90000000D02*
X91318057Y-89952381D01*
X91318057Y-89952381D02*
X91603771Y-89952381D01*
X91603771Y-89952381D02*
X91699009Y-90000000D01*
X91699009Y-90000000D02*
X91746628Y-90047619D01*
X91746628Y-90047619D02*
X91794247Y-90142857D01*
X91794247Y-90142857D02*
X91794247Y-90333333D01*
X91794247Y-90333333D02*
X91746628Y-90428571D01*
X91794247Y-91333333D02*
X90984723Y-91333333D01*
X90984723Y-91333333D02*
X90889485Y-91285714D01*
X90889485Y-91285714D02*
X90841866Y-91238095D01*
X90841866Y-91238095D02*
X90794247Y-91142857D01*
X90794247Y-91142857D02*
X90794247Y-91000000D01*
X90794247Y-91000000D02*
X90841866Y-90904762D01*
X91175200Y-91333333D02*
X91127580Y-91238095D01*
X91127580Y-91238095D02*
X91127580Y-91047619D01*
X91127580Y-91047619D02*
X91175200Y-90952381D01*
X91175200Y-90952381D02*
X91222819Y-90904762D01*
X91222819Y-90904762D02*
X91318057Y-90857143D01*
X91318057Y-90857143D02*
X91603771Y-90857143D01*
X91603771Y-90857143D02*
X91699009Y-90904762D01*
X91699009Y-90904762D02*
X91746628Y-90952381D01*
X91746628Y-90952381D02*
X91794247Y-91047619D01*
X91794247Y-91047619D02*
X91794247Y-91238095D01*
X91794247Y-91238095D02*
X91746628Y-91333333D01*
X91175200Y-92190476D02*
X91127580Y-92095238D01*
X91127580Y-92095238D02*
X91127580Y-91904762D01*
X91127580Y-91904762D02*
X91175200Y-91809524D01*
X91175200Y-91809524D02*
X91270438Y-91761905D01*
X91270438Y-91761905D02*
X91651390Y-91761905D01*
X91651390Y-91761905D02*
X91746628Y-91809524D01*
X91746628Y-91809524D02*
X91794247Y-91904762D01*
X91794247Y-91904762D02*
X91794247Y-92095238D01*
X91794247Y-92095238D02*
X91746628Y-92190476D01*
X91746628Y-92190476D02*
X91651390Y-92238095D01*
X91651390Y-92238095D02*
X91556152Y-92238095D01*
X91556152Y-92238095D02*
X91460914Y-91761905D01*
X91794247Y-93333334D02*
X91127580Y-93571429D01*
X91127580Y-93571429D02*
X91794247Y-93809524D01*
X91127580Y-94714286D02*
X91127580Y-94142858D01*
X91127580Y-94428572D02*
X92127580Y-94428572D01*
X92127580Y-94428572D02*
X91984723Y-94333334D01*
X91984723Y-94333334D02*
X91889485Y-94238096D01*
X91889485Y-94238096D02*
X91841866Y-94142858D01*
X91222819Y-95142858D02*
X91175200Y-95190477D01*
X91175200Y-95190477D02*
X91127580Y-95142858D01*
X91127580Y-95142858D02*
X91175200Y-95095239D01*
X91175200Y-95095239D02*
X91222819Y-95142858D01*
X91222819Y-95142858D02*
X91127580Y-95142858D01*
X91127580Y-96142857D02*
X91127580Y-95571429D01*
X91127580Y-95857143D02*
X92127580Y-95857143D01*
X92127580Y-95857143D02*
X91984723Y-95761905D01*
X91984723Y-95761905D02*
X91889485Y-95666667D01*
X91889485Y-95666667D02*
X91841866Y-95571429D01*
X123833333Y-100957419D02*
X123833333Y-99957419D01*
X123833333Y-99957419D02*
X124166666Y-100671704D01*
X124166666Y-100671704D02*
X124499999Y-99957419D01*
X124499999Y-99957419D02*
X124499999Y-100957419D01*
X124928571Y-100671704D02*
X125404761Y-100671704D01*
X124833333Y-100957419D02*
X125166666Y-99957419D01*
X125166666Y-99957419D02*
X125499999Y-100957419D01*
X125738095Y-99957419D02*
X126404761Y-100957419D01*
X126404761Y-99957419D02*
X125738095Y-100957419D01*
X127214285Y-100290752D02*
X127214285Y-100957419D01*
X126976190Y-99909800D02*
X126738095Y-100624085D01*
X126738095Y-100624085D02*
X127357142Y-100624085D01*
X127880952Y-100385990D02*
X127785714Y-100338371D01*
X127785714Y-100338371D02*
X127738095Y-100290752D01*
X127738095Y-100290752D02*
X127690476Y-100195514D01*
X127690476Y-100195514D02*
X127690476Y-100147895D01*
X127690476Y-100147895D02*
X127738095Y-100052657D01*
X127738095Y-100052657D02*
X127785714Y-100005038D01*
X127785714Y-100005038D02*
X127880952Y-99957419D01*
X127880952Y-99957419D02*
X128071428Y-99957419D01*
X128071428Y-99957419D02*
X128166666Y-100005038D01*
X128166666Y-100005038D02*
X128214285Y-100052657D01*
X128214285Y-100052657D02*
X128261904Y-100147895D01*
X128261904Y-100147895D02*
X128261904Y-100195514D01*
X128261904Y-100195514D02*
X128214285Y-100290752D01*
X128214285Y-100290752D02*
X128166666Y-100338371D01*
X128166666Y-100338371D02*
X128071428Y-100385990D01*
X128071428Y-100385990D02*
X127880952Y-100385990D01*
X127880952Y-100385990D02*
X127785714Y-100433609D01*
X127785714Y-100433609D02*
X127738095Y-100481228D01*
X127738095Y-100481228D02*
X127690476Y-100576466D01*
X127690476Y-100576466D02*
X127690476Y-100766942D01*
X127690476Y-100766942D02*
X127738095Y-100862180D01*
X127738095Y-100862180D02*
X127785714Y-100909800D01*
X127785714Y-100909800D02*
X127880952Y-100957419D01*
X127880952Y-100957419D02*
X128071428Y-100957419D01*
X128071428Y-100957419D02*
X128166666Y-100909800D01*
X128166666Y-100909800D02*
X128214285Y-100862180D01*
X128214285Y-100862180D02*
X128261904Y-100766942D01*
X128261904Y-100766942D02*
X128261904Y-100576466D01*
X128261904Y-100576466D02*
X128214285Y-100481228D01*
X128214285Y-100481228D02*
X128166666Y-100433609D01*
X128166666Y-100433609D02*
X128071428Y-100385990D01*
X129166666Y-99957419D02*
X128690476Y-99957419D01*
X128690476Y-99957419D02*
X128642857Y-100433609D01*
X128642857Y-100433609D02*
X128690476Y-100385990D01*
X128690476Y-100385990D02*
X128785714Y-100338371D01*
X128785714Y-100338371D02*
X129023809Y-100338371D01*
X129023809Y-100338371D02*
X129119047Y-100385990D01*
X129119047Y-100385990D02*
X129166666Y-100433609D01*
X129166666Y-100433609D02*
X129214285Y-100528847D01*
X129214285Y-100528847D02*
X129214285Y-100766942D01*
X129214285Y-100766942D02*
X129166666Y-100862180D01*
X129166666Y-100862180D02*
X129119047Y-100909800D01*
X129119047Y-100909800D02*
X129023809Y-100957419D01*
X129023809Y-100957419D02*
X128785714Y-100957419D01*
X128785714Y-100957419D02*
X128690476Y-100909800D01*
X128690476Y-100909800D02*
X128642857Y-100862180D01*
X109023693Y-87760038D02*
X108928455Y-87712419D01*
X108928455Y-87712419D02*
X108785598Y-87712419D01*
X108785598Y-87712419D02*
X108642741Y-87760038D01*
X108642741Y-87760038D02*
X108547503Y-87855276D01*
X108547503Y-87855276D02*
X108499884Y-87950514D01*
X108499884Y-87950514D02*
X108452265Y-88140990D01*
X108452265Y-88140990D02*
X108452265Y-88283847D01*
X108452265Y-88283847D02*
X108499884Y-88474323D01*
X108499884Y-88474323D02*
X108547503Y-88569561D01*
X108547503Y-88569561D02*
X108642741Y-88664800D01*
X108642741Y-88664800D02*
X108785598Y-88712419D01*
X108785598Y-88712419D02*
X108880836Y-88712419D01*
X108880836Y-88712419D02*
X109023693Y-88664800D01*
X109023693Y-88664800D02*
X109071312Y-88617180D01*
X109071312Y-88617180D02*
X109071312Y-88283847D01*
X109071312Y-88283847D02*
X108880836Y-88283847D01*
X109499884Y-88712419D02*
X109499884Y-87712419D01*
X109499884Y-87712419D02*
X110071312Y-88712419D01*
X110071312Y-88712419D02*
X110071312Y-87712419D01*
X110547503Y-88712419D02*
X110547503Y-87712419D01*
X110547503Y-87712419D02*
X110785598Y-87712419D01*
X110785598Y-87712419D02*
X110928455Y-87760038D01*
X110928455Y-87760038D02*
X111023693Y-87855276D01*
X111023693Y-87855276D02*
X111071312Y-87950514D01*
X111071312Y-87950514D02*
X111118931Y-88140990D01*
X111118931Y-88140990D02*
X111118931Y-88283847D01*
X111118931Y-88283847D02*
X111071312Y-88474323D01*
X111071312Y-88474323D02*
X111023693Y-88569561D01*
X111023693Y-88569561D02*
X110928455Y-88664800D01*
X110928455Y-88664800D02*
X110785598Y-88712419D01*
X110785598Y-88712419D02*
X110547503Y-88712419D01*
X145545712Y-96357819D02*
X145212379Y-95881628D01*
X144974284Y-96357819D02*
X144974284Y-95357819D01*
X144974284Y-95357819D02*
X145355236Y-95357819D01*
X145355236Y-95357819D02*
X145450474Y-95405438D01*
X145450474Y-95405438D02*
X145498093Y-95453057D01*
X145498093Y-95453057D02*
X145545712Y-95548295D01*
X145545712Y-95548295D02*
X145545712Y-95691152D01*
X145545712Y-95691152D02*
X145498093Y-95786390D01*
X145498093Y-95786390D02*
X145450474Y-95834009D01*
X145450474Y-95834009D02*
X145355236Y-95881628D01*
X145355236Y-95881628D02*
X144974284Y-95881628D01*
X146164760Y-95357819D02*
X146355236Y-95357819D01*
X146355236Y-95357819D02*
X146450474Y-95405438D01*
X146450474Y-95405438D02*
X146545712Y-95500676D01*
X146545712Y-95500676D02*
X146593331Y-95691152D01*
X146593331Y-95691152D02*
X146593331Y-96024485D01*
X146593331Y-96024485D02*
X146545712Y-96214961D01*
X146545712Y-96214961D02*
X146450474Y-96310200D01*
X146450474Y-96310200D02*
X146355236Y-96357819D01*
X146355236Y-96357819D02*
X146164760Y-96357819D01*
X146164760Y-96357819D02*
X146069522Y-96310200D01*
X146069522Y-96310200D02*
X145974284Y-96214961D01*
X145974284Y-96214961D02*
X145926665Y-96024485D01*
X145926665Y-96024485D02*
X145926665Y-95691152D01*
X145926665Y-95691152D02*
X145974284Y-95500676D01*
X145974284Y-95500676D02*
X146069522Y-95405438D01*
X146069522Y-95405438D02*
X146164760Y-95357819D01*
X145253684Y-88763219D02*
X145253684Y-87763219D01*
X145253684Y-87763219D02*
X145491779Y-87763219D01*
X145491779Y-87763219D02*
X145634636Y-87810838D01*
X145634636Y-87810838D02*
X145729874Y-87906076D01*
X145729874Y-87906076D02*
X145777493Y-88001314D01*
X145777493Y-88001314D02*
X145825112Y-88191790D01*
X145825112Y-88191790D02*
X145825112Y-88334647D01*
X145825112Y-88334647D02*
X145777493Y-88525123D01*
X145777493Y-88525123D02*
X145729874Y-88620361D01*
X145729874Y-88620361D02*
X145634636Y-88715600D01*
X145634636Y-88715600D02*
X145491779Y-88763219D01*
X145491779Y-88763219D02*
X145253684Y-88763219D01*
X146253684Y-88763219D02*
X146253684Y-87763219D01*
X145025084Y-91277819D02*
X145025084Y-90277819D01*
X145025084Y-90277819D02*
X145263179Y-90277819D01*
X145263179Y-90277819D02*
X145406036Y-90325438D01*
X145406036Y-90325438D02*
X145501274Y-90420676D01*
X145501274Y-90420676D02*
X145548893Y-90515914D01*
X145548893Y-90515914D02*
X145596512Y-90706390D01*
X145596512Y-90706390D02*
X145596512Y-90849247D01*
X145596512Y-90849247D02*
X145548893Y-91039723D01*
X145548893Y-91039723D02*
X145501274Y-91134961D01*
X145501274Y-91134961D02*
X145406036Y-91230200D01*
X145406036Y-91230200D02*
X145263179Y-91277819D01*
X145263179Y-91277819D02*
X145025084Y-91277819D01*
X146025084Y-90754009D02*
X146358417Y-90754009D01*
X146501274Y-91277819D02*
X146025084Y-91277819D01*
X146025084Y-91277819D02*
X146025084Y-90277819D01*
X146025084Y-90277819D02*
X146501274Y-90277819D01*
X145647312Y-93792419D02*
X145313979Y-93316228D01*
X145075884Y-93792419D02*
X145075884Y-92792419D01*
X145075884Y-92792419D02*
X145456836Y-92792419D01*
X145456836Y-92792419D02*
X145552074Y-92840038D01*
X145552074Y-92840038D02*
X145599693Y-92887657D01*
X145599693Y-92887657D02*
X145647312Y-92982895D01*
X145647312Y-92982895D02*
X145647312Y-93125752D01*
X145647312Y-93125752D02*
X145599693Y-93220990D01*
X145599693Y-93220990D02*
X145552074Y-93268609D01*
X145552074Y-93268609D02*
X145456836Y-93316228D01*
X145456836Y-93316228D02*
X145075884Y-93316228D01*
X146075884Y-93268609D02*
X146409217Y-93268609D01*
X146552074Y-93792419D02*
X146075884Y-93792419D01*
X146075884Y-93792419D02*
X146075884Y-92792419D01*
X146075884Y-92792419D02*
X146552074Y-92792419D01*
X109061817Y-93090809D02*
X109204674Y-93138428D01*
X109204674Y-93138428D02*
X109252293Y-93186047D01*
X109252293Y-93186047D02*
X109299912Y-93281285D01*
X109299912Y-93281285D02*
X109299912Y-93424142D01*
X109299912Y-93424142D02*
X109252293Y-93519380D01*
X109252293Y-93519380D02*
X109204674Y-93567000D01*
X109204674Y-93567000D02*
X109109436Y-93614619D01*
X109109436Y-93614619D02*
X108728484Y-93614619D01*
X108728484Y-93614619D02*
X108728484Y-92614619D01*
X108728484Y-92614619D02*
X109061817Y-92614619D01*
X109061817Y-92614619D02*
X109157055Y-92662238D01*
X109157055Y-92662238D02*
X109204674Y-92709857D01*
X109204674Y-92709857D02*
X109252293Y-92805095D01*
X109252293Y-92805095D02*
X109252293Y-92900333D01*
X109252293Y-92900333D02*
X109204674Y-92995571D01*
X109204674Y-92995571D02*
X109157055Y-93043190D01*
X109157055Y-93043190D02*
X109061817Y-93090809D01*
X109061817Y-93090809D02*
X108728484Y-93090809D01*
X108585627Y-95281619D02*
X108918960Y-96281619D01*
X108918960Y-96281619D02*
X109252293Y-95281619D01*
X110157055Y-96186380D02*
X110109436Y-96234000D01*
X110109436Y-96234000D02*
X109966579Y-96281619D01*
X109966579Y-96281619D02*
X109871341Y-96281619D01*
X109871341Y-96281619D02*
X109728484Y-96234000D01*
X109728484Y-96234000D02*
X109633246Y-96138761D01*
X109633246Y-96138761D02*
X109585627Y-96043523D01*
X109585627Y-96043523D02*
X109538008Y-95853047D01*
X109538008Y-95853047D02*
X109538008Y-95710190D01*
X109538008Y-95710190D02*
X109585627Y-95519714D01*
X109585627Y-95519714D02*
X109633246Y-95424476D01*
X109633246Y-95424476D02*
X109728484Y-95329238D01*
X109728484Y-95329238D02*
X109871341Y-95281619D01*
X109871341Y-95281619D02*
X109966579Y-95281619D01*
X109966579Y-95281619D02*
X110109436Y-95329238D01*
X110109436Y-95329238D02*
X110157055Y-95376857D01*
X111157055Y-96186380D02*
X111109436Y-96234000D01*
X111109436Y-96234000D02*
X110966579Y-96281619D01*
X110966579Y-96281619D02*
X110871341Y-96281619D01*
X110871341Y-96281619D02*
X110728484Y-96234000D01*
X110728484Y-96234000D02*
X110633246Y-96138761D01*
X110633246Y-96138761D02*
X110585627Y-96043523D01*
X110585627Y-96043523D02*
X110538008Y-95853047D01*
X110538008Y-95853047D02*
X110538008Y-95710190D01*
X110538008Y-95710190D02*
X110585627Y-95519714D01*
X110585627Y-95519714D02*
X110633246Y-95424476D01*
X110633246Y-95424476D02*
X110728484Y-95329238D01*
X110728484Y-95329238D02*
X110871341Y-95281619D01*
X110871341Y-95281619D02*
X110966579Y-95281619D01*
X110966579Y-95281619D02*
X111109436Y-95329238D01*
X111109436Y-95329238D02*
X111157055Y-95376857D01*
X108680865Y-90814304D02*
X109157055Y-90814304D01*
X108585627Y-91100019D02*
X108918960Y-90100019D01*
X108918960Y-90100019D02*
X109252293Y-91100019D01*
%TO.C,MAX485*%
X105500000Y-85000000D02*
X149500000Y-85000000D01*
X149500000Y-99000000D01*
X105500000Y-99000000D01*
X105500000Y-85000000D01*
D12*
%TO.C,GND*%
X102950000Y-86850000D02*
G75*
G02*
X100050000Y-86850000I-1450000J0D01*
G01*
X100050000Y-86850000D02*
G75*
G02*
X102950000Y-86850000I1450000J0D01*
G01*
%TO.C,A*%
X102950000Y-92000000D02*
G75*
G02*
X100050000Y-92000000I-1450000J0D01*
G01*
X100050000Y-92000000D02*
G75*
G02*
X102950000Y-92000000I1450000J0D01*
G01*
%TO.C,B*%
X102950000Y-97000000D02*
G75*
G02*
X100050000Y-97000000I-1450000J0D01*
G01*
X100050000Y-97000000D02*
G75*
G02*
X102950000Y-97000000I1450000J0D01*
G01*
%TD*%
M02*
