%TF.GenerationSoftware,KiCad,Pcbnew,9.0.7*%
%TF.CreationDate,2026-02-05T13:10:28+00:00*%
%TF.ProjectId,dmx_rec,646d785f-7265-4632-9e6b-696361645f70,rev?*%
%TF.SameCoordinates,Original*%
%TF.FileFunction,Copper,L2,Bot*%
%TF.FilePolarity,Positive*%
%FSLAX46Y46*%
G04 Gerber Fmt 4.6, Leading zero omitted, Abs format (unit mm)*
G04 Created by KiCad (PCBNEW 9.0.7) date 2026-02-05 13:10:28*
%MOMM*%
%LPD*%
G01*
G04 APERTURE LIST*
G04 Aperture macros list*
%AMRoundRect*
0 Rectangle with rounded corners*
0 $1 Rounding radius*
0 $2 $3 $4 $5 $6 $7 $8 $9 X,Y pos of 4 corners*
0 Add a 4 corners polygon primitive as box body*
4,1,4,$2,$3,$4,$5,$6,$7,$8,$9,$2,$3,0*
0 Add four circle primitives for the rounded corners*
1,1,$1+$1,$2,$3*
1,1,$1+$1,$4,$5*
1,1,$1+$1,$6,$7*
1,1,$1+$1,$8,$9*
0 Add four rect primitives between the rounded corners*
20,1,$1+$1,$2,$3,$4,$5,0*
20,1,$1+$1,$4,$5,$6,$7,0*
20,1,$1+$1,$6,$7,$8,$9,0*
20,1,$1+$1,$8,$9,$2,$3,0*%
G04 Aperture macros list end*
%TA.AperFunction,ComponentPad*%
%ADD10C,1.905000*%
%TD*%
%TA.AperFunction,ComponentPad*%
%ADD11C,2.500000*%
%TD*%
%TA.AperFunction,SMDPad,CuDef*%
%ADD12RoundRect,0.285750X0.666750X-1.143000X0.666750X1.143000X-0.666750X1.143000X-0.666750X-1.143000X0*%
%TD*%
%TA.AperFunction,ComponentPad*%
%ADD13R,2.000000X2.000000*%
%TD*%
%TA.AperFunction,ViaPad*%
%ADD14C,0.600000*%
%TD*%
%TA.AperFunction,Conductor*%
%ADD15C,0.200000*%
%TD*%
G04 APERTURE END LIST*
D10*
%TO.P,MAX485,A,A*%
%TO.N,Net-(A1-Pad1)*%
X107024000Y-90770400D03*
%TO.P,MAX485,B,B*%
%TO.N,Net-(B1-Pad1)*%
X107024000Y-93335800D03*
%TO.P,MAX485,DE,DE*%
%TO.N,Net-(ESP32-C6-Pad5V)*%
X148024000Y-90745000D03*
%TO.P,MAX485,DI,DI*%
%TO.N,Net-(ESP32-C6-GP1)*%
X148024000Y-88230400D03*
%TO.P,MAX485,GND,GND*%
%TO.N,GND*%
X107024000Y-88255800D03*
%TO.P,MAX485,RE,RE*%
X148024000Y-93285000D03*
%TO.P,MAX485,RO,RO*%
X148024000Y-95825000D03*
%TO.P,MAX485,VCC,VCC*%
%TO.N,Net-(ESP32-C6-Pad5V)*%
X107024000Y-95850400D03*
%TD*%
D11*
%TO.P,GND,1,1*%
%TO.N,GND*%
X101500000Y-86850000D03*
%TD*%
%TO.P,A,1,1*%
%TO.N,Net-(A1-Pad1)*%
X101500000Y-92000000D03*
%TD*%
%TO.P,B,1,1*%
%TO.N,Net-(B1-Pad1)*%
X101500000Y-97000000D03*
%TD*%
D12*
%TO.P,ESP32-C6,0,GP0*%
%TO.N,unconnected-(ESP32-C6-GP0-Pad0)*%
X128452456Y-100491200D03*
%TO.P,ESP32-C6,1,GP1*%
%TO.N,Net-(ESP32-C6-GP1)*%
X125909633Y-100491200D03*
%TO.P,ESP32-C6,2,GP2*%
%TO.N,unconnected-(ESP32-C6-GP2-Pad2)*%
X123366811Y-100491200D03*
%TO.P,ESP32-C6,3,GP3*%
%TO.N,unconnected-(ESP32-C6-GP3-Pad3)*%
X120823989Y-100491200D03*
%TO.P,ESP32-C6,3V3,3V3*%
%TO.N,unconnected-(ESP32-C6-Pad3V3)*%
X128420000Y-83491200D03*
%TO.P,ESP32-C6,4,GP4*%
%TO.N,unconnected-(ESP32-C6-GP4-Pad4)*%
X118281167Y-100491200D03*
%TO.P,ESP32-C6,5,GP5*%
%TO.N,unconnected-(ESP32-C6-GP5-Pad5)*%
X115738344Y-100491200D03*
%TO.P,ESP32-C6,5V,5V*%
%TO.N,Net-(ESP32-C6-Pad5V)*%
X133500000Y-83491200D03*
%TO.P,ESP32-C6,6,GP6*%
%TO.N,unconnected-(ESP32-C6-GP6-Pad6)*%
X113195522Y-100491200D03*
%TO.P,ESP32-C6,7,GP7*%
%TO.N,unconnected-(ESP32-C6-GP7-Pad7)*%
X110652700Y-100491200D03*
%TO.P,ESP32-C6,8,GP8*%
%TO.N,unconnected-(ESP32-C6-GP8-Pad8)*%
X110640000Y-83491200D03*
%TO.P,ESP32-C6,9,GP9*%
%TO.N,unconnected-(ESP32-C6-GP9-Pad9)*%
X113180000Y-83491200D03*
%TO.P,ESP32-C6,14,GP14*%
%TO.N,unconnected-(ESP32-C6-GP14-Pad14)*%
X115720000Y-83491200D03*
%TO.P,ESP32-C6,15,GP15*%
%TO.N,unconnected-(ESP32-C6-GP15-Pad15)*%
X118260000Y-83491200D03*
%TO.P,ESP32-C6,18,GP18*%
%TO.N,unconnected-(ESP32-C6-GP18-Pad18)*%
X120800000Y-83491200D03*
%TO.P,ESP32-C6,19,GP19*%
%TO.N,unconnected-(ESP32-C6-GP19-Pad19)*%
X123340000Y-83491200D03*
%TO.P,ESP32-C6,20,GP20*%
%TO.N,unconnected-(ESP32-C6-GP20-Pad20)*%
X125880000Y-83491200D03*
D13*
%TO.P,ESP32-C6,BAT+,BAT+*%
%TO.N,Net-(ESP32-C6-Pad5V)*%
X133287800Y-89491200D03*
D12*
%TO.P,ESP32-C6,GND,GND*%
%TO.N,GND*%
X130960000Y-83491200D03*
%TO.P,ESP32-C6,RX,RX*%
%TO.N,unconnected-(ESP32-C6-PadRX)*%
X130995278Y-100491200D03*
%TO.P,ESP32-C6,TX,TX*%
%TO.N,unconnected-(ESP32-C6-PadTX)*%
X133538100Y-100491200D03*
%TD*%
D14*
%TO.N,GND*%
X136000000Y-94000000D03*
X127000000Y-94000000D03*
X151500000Y-99500000D03*
X143000000Y-99000000D03*
X95500000Y-86000000D03*
X142500000Y-86000000D03*
X151500000Y-84000000D03*
X114000000Y-93000000D03*
X114000000Y-87500000D03*
X95500000Y-97000000D03*
%TO.N,Net-(ESP32-C6-Pad5V)*%
X135500000Y-87000000D03*
%TD*%
D15*
%TO.N,Net-(ESP32-C6-Pad5V)*%
X135500000Y-85928750D02*
X133500000Y-83928750D01*
X135500000Y-87000000D02*
X135500000Y-85928750D01*
X135500000Y-87279000D02*
X133287800Y-89491200D01*
X135500000Y-87000000D02*
X135500000Y-87279000D01*
%TO.N,Net-(ESP32-C6-GP1)*%
X127000000Y-98000000D02*
X137905400Y-98000000D01*
X137905400Y-98000000D02*
X148000000Y-87905400D01*
X125909633Y-99090367D02*
X127000000Y-98000000D01*
X125909633Y-101372200D02*
X125909633Y-99090367D01*
%TD*%
%TA.AperFunction,Conductor*%
%TO.N,GND*%
G36*
X109093263Y-81983186D02*
G01*
X109160293Y-82002895D01*
X109206029Y-82055715D01*
X109215947Y-82124877D01*
X109210259Y-82148136D01*
X109201862Y-82172133D01*
X109201862Y-82172135D01*
X109187000Y-82304041D01*
X109187000Y-84678358D01*
X109201861Y-84810261D01*
X109258284Y-84971507D01*
X109260381Y-84977500D01*
X109354645Y-85127521D01*
X109479929Y-85252805D01*
X109629950Y-85347069D01*
X109744359Y-85387102D01*
X109797188Y-85405588D01*
X109881544Y-85415092D01*
X109929091Y-85420449D01*
X109929092Y-85420450D01*
X109929096Y-85420450D01*
X111350908Y-85420450D01*
X111350908Y-85420449D01*
X111410724Y-85413709D01*
X111482811Y-85405588D01*
X111482814Y-85405587D01*
X111650050Y-85347069D01*
X111800071Y-85252805D01*
X111822319Y-85230557D01*
X111883642Y-85197072D01*
X111953334Y-85202056D01*
X111997681Y-85230557D01*
X112019929Y-85252805D01*
X112169950Y-85347069D01*
X112284359Y-85387102D01*
X112337188Y-85405588D01*
X112421544Y-85415092D01*
X112469091Y-85420449D01*
X112469092Y-85420450D01*
X112469096Y-85420450D01*
X113890908Y-85420450D01*
X113890908Y-85420449D01*
X113950724Y-85413709D01*
X114022811Y-85405588D01*
X114022814Y-85405587D01*
X114190050Y-85347069D01*
X114340071Y-85252805D01*
X114362319Y-85230557D01*
X114423642Y-85197072D01*
X114493334Y-85202056D01*
X114537681Y-85230557D01*
X114559929Y-85252805D01*
X114709950Y-85347069D01*
X114824359Y-85387102D01*
X114877188Y-85405588D01*
X114961544Y-85415092D01*
X115009091Y-85420449D01*
X115009092Y-85420450D01*
X115009096Y-85420450D01*
X116430908Y-85420450D01*
X116430908Y-85420449D01*
X116490724Y-85413709D01*
X116562811Y-85405588D01*
X116562814Y-85405587D01*
X116730050Y-85347069D01*
X116880071Y-85252805D01*
X116902319Y-85230557D01*
X116963642Y-85197072D01*
X117033334Y-85202056D01*
X117077681Y-85230557D01*
X117099929Y-85252805D01*
X117249950Y-85347069D01*
X117364359Y-85387102D01*
X117417188Y-85405588D01*
X117501544Y-85415092D01*
X117549091Y-85420449D01*
X117549092Y-85420450D01*
X117549096Y-85420450D01*
X118970908Y-85420450D01*
X118970908Y-85420449D01*
X119030724Y-85413709D01*
X119102811Y-85405588D01*
X119102814Y-85405587D01*
X119270050Y-85347069D01*
X119420071Y-85252805D01*
X119442319Y-85230557D01*
X119503642Y-85197072D01*
X119573334Y-85202056D01*
X119617681Y-85230557D01*
X119639929Y-85252805D01*
X119789950Y-85347069D01*
X119904359Y-85387102D01*
X119957188Y-85405588D01*
X120041544Y-85415092D01*
X120089091Y-85420449D01*
X120089092Y-85420450D01*
X120089096Y-85420450D01*
X121510908Y-85420450D01*
X121510908Y-85420449D01*
X121570724Y-85413709D01*
X121642811Y-85405588D01*
X121642814Y-85405587D01*
X121810050Y-85347069D01*
X121960071Y-85252805D01*
X121982319Y-85230557D01*
X122043642Y-85197072D01*
X122113334Y-85202056D01*
X122157681Y-85230557D01*
X122179929Y-85252805D01*
X122329950Y-85347069D01*
X122444359Y-85387102D01*
X122497188Y-85405588D01*
X122581544Y-85415092D01*
X122629091Y-85420449D01*
X122629092Y-85420450D01*
X122629096Y-85420450D01*
X124050908Y-85420450D01*
X124050908Y-85420449D01*
X124110724Y-85413709D01*
X124182811Y-85405588D01*
X124182814Y-85405587D01*
X124350050Y-85347069D01*
X124500071Y-85252805D01*
X124522319Y-85230557D01*
X124583642Y-85197072D01*
X124653334Y-85202056D01*
X124697681Y-85230557D01*
X124719929Y-85252805D01*
X124869950Y-85347069D01*
X124984359Y-85387102D01*
X125037188Y-85405588D01*
X125121544Y-85415092D01*
X125169091Y-85420449D01*
X125169092Y-85420450D01*
X125169096Y-85420450D01*
X126590908Y-85420450D01*
X126590908Y-85420449D01*
X126650724Y-85413709D01*
X126722811Y-85405588D01*
X126722814Y-85405587D01*
X126890050Y-85347069D01*
X127040071Y-85252805D01*
X127062319Y-85230557D01*
X127123642Y-85197072D01*
X127193334Y-85202056D01*
X127237681Y-85230557D01*
X127259929Y-85252805D01*
X127409950Y-85347069D01*
X127524359Y-85387102D01*
X127577188Y-85405588D01*
X127661544Y-85415092D01*
X127709091Y-85420449D01*
X127709092Y-85420450D01*
X127709096Y-85420450D01*
X129130908Y-85420450D01*
X129130908Y-85420449D01*
X129190724Y-85413709D01*
X129262811Y-85405588D01*
X129262814Y-85405587D01*
X129430050Y-85347069D01*
X129580071Y-85252805D01*
X129705355Y-85127521D01*
X129799619Y-84977500D01*
X129858137Y-84810264D01*
X129858137Y-84810263D01*
X129858138Y-84810261D01*
X129871355Y-84692953D01*
X129873000Y-84678354D01*
X129873000Y-82304046D01*
X129858137Y-82172136D01*
X129852380Y-82155686D01*
X129848818Y-82085908D01*
X129883546Y-82025280D01*
X129945538Y-81993052D01*
X129969460Y-81990730D01*
X131950372Y-81991446D01*
X132017403Y-82011155D01*
X132063139Y-82063975D01*
X132073057Y-82133137D01*
X132067369Y-82156396D01*
X132061862Y-82172133D01*
X132061862Y-82172135D01*
X132047000Y-82304041D01*
X132047000Y-84678358D01*
X132061861Y-84810261D01*
X132118284Y-84971507D01*
X132120381Y-84977500D01*
X132214645Y-85127521D01*
X132339929Y-85252805D01*
X132489950Y-85347069D01*
X132604359Y-85387102D01*
X132657188Y-85405588D01*
X132741544Y-85415092D01*
X132789091Y-85420449D01*
X132789092Y-85420450D01*
X132789096Y-85420450D01*
X134091103Y-85420450D01*
X134158142Y-85440135D01*
X134178784Y-85456769D01*
X134863181Y-86141166D01*
X134877884Y-86168093D01*
X134894477Y-86193912D01*
X134895368Y-86200112D01*
X134896666Y-86202489D01*
X134899500Y-86228847D01*
X134899500Y-86420234D01*
X134879815Y-86487273D01*
X134878602Y-86489125D01*
X134790609Y-86620814D01*
X134790602Y-86620827D01*
X134730264Y-86766498D01*
X134730261Y-86766510D01*
X134699500Y-86921153D01*
X134699500Y-86921158D01*
X134699500Y-87078842D01*
X134703355Y-87098221D01*
X134711692Y-87140137D01*
X134705463Y-87209728D01*
X134677755Y-87252008D01*
X133975382Y-87954381D01*
X133914059Y-87987866D01*
X133887701Y-87990700D01*
X132239929Y-87990700D01*
X132239923Y-87990701D01*
X132180316Y-87997108D01*
X132045471Y-88047402D01*
X132045464Y-88047406D01*
X131930255Y-88133652D01*
X131930252Y-88133655D01*
X131844006Y-88248864D01*
X131844002Y-88248871D01*
X131793708Y-88383717D01*
X131787301Y-88443316D01*
X131787300Y-88443335D01*
X131787300Y-90539070D01*
X131787301Y-90539076D01*
X131793708Y-90598683D01*
X131844002Y-90733528D01*
X131844006Y-90733535D01*
X131930252Y-90848744D01*
X131930255Y-90848747D01*
X132045464Y-90934993D01*
X132045471Y-90934997D01*
X132180317Y-90985291D01*
X132180316Y-90985291D01*
X132187244Y-90986035D01*
X132239927Y-90991700D01*
X134335672Y-90991699D01*
X134395283Y-90985291D01*
X134530131Y-90934996D01*
X134645346Y-90848746D01*
X134731596Y-90733531D01*
X134781891Y-90598683D01*
X134788300Y-90539073D01*
X134788299Y-88891295D01*
X134807984Y-88824257D01*
X134824613Y-88803620D01*
X135868713Y-87759521D01*
X135868716Y-87759520D01*
X135980520Y-87647716D01*
X135981300Y-87646363D01*
X135988054Y-87639579D01*
X135993644Y-87636509D01*
X136007051Y-87623953D01*
X136008966Y-87622672D01*
X136010289Y-87621789D01*
X136121789Y-87510289D01*
X136209394Y-87379179D01*
X136269737Y-87233497D01*
X136300500Y-87078842D01*
X136300500Y-86921158D01*
X136300500Y-86921155D01*
X136300499Y-86921153D01*
X136286345Y-86849999D01*
X136269737Y-86766503D01*
X136261661Y-86747006D01*
X136209397Y-86620827D01*
X136209390Y-86620814D01*
X136121398Y-86489125D01*
X136100520Y-86422447D01*
X136100500Y-86420234D01*
X136100500Y-85849695D01*
X136100500Y-85849693D01*
X136080499Y-85775048D01*
X136059577Y-85696965D01*
X136030639Y-85646845D01*
X135980520Y-85560034D01*
X135868716Y-85448230D01*
X135868715Y-85448229D01*
X135864385Y-85443899D01*
X135864374Y-85443889D01*
X134989319Y-84568834D01*
X134955834Y-84507511D01*
X134953000Y-84481153D01*
X134953000Y-82304042D01*
X134952999Y-82304041D01*
X134945186Y-82234701D01*
X134938137Y-82172136D01*
X134933024Y-82157523D01*
X134929461Y-82087745D01*
X134964189Y-82027117D01*
X135026182Y-81994889D01*
X135050105Y-81992567D01*
X156926861Y-82000473D01*
X156934019Y-82000476D01*
X156934108Y-82000500D01*
X156996805Y-82000500D01*
X156996809Y-82000501D01*
X157003248Y-82000670D01*
X157307046Y-82016592D01*
X157319953Y-82017949D01*
X157377839Y-82027117D01*
X157617209Y-82065028D01*
X157629896Y-82067724D01*
X157920625Y-82145625D01*
X157932965Y-82149635D01*
X158213938Y-82257490D01*
X158225790Y-82262767D01*
X158493968Y-82399411D01*
X158505199Y-82405896D01*
X158718928Y-82544693D01*
X158757608Y-82569812D01*
X158768109Y-82577441D01*
X159002010Y-82766850D01*
X159011655Y-82775535D01*
X159224464Y-82988344D01*
X159233149Y-82997989D01*
X159422558Y-83231890D01*
X159430187Y-83242391D01*
X159594101Y-83494796D01*
X159600591Y-83506036D01*
X159737231Y-83774206D01*
X159742510Y-83786064D01*
X159850363Y-84067033D01*
X159854374Y-84079376D01*
X159932273Y-84370097D01*
X159934971Y-84382794D01*
X159982050Y-84680046D01*
X159983407Y-84692953D01*
X159999330Y-84996756D01*
X159999500Y-85003246D01*
X159999500Y-98996753D01*
X159999330Y-99003243D01*
X159983407Y-99307046D01*
X159982050Y-99319953D01*
X159934971Y-99617205D01*
X159932273Y-99629902D01*
X159854374Y-99920623D01*
X159850363Y-99932966D01*
X159742510Y-100213935D01*
X159737231Y-100225793D01*
X159600591Y-100493963D01*
X159594101Y-100505203D01*
X159430187Y-100757608D01*
X159422558Y-100768109D01*
X159233149Y-101002010D01*
X159224464Y-101011655D01*
X159011655Y-101224464D01*
X159002010Y-101233149D01*
X158768109Y-101422558D01*
X158757608Y-101430187D01*
X158505203Y-101594101D01*
X158493963Y-101600591D01*
X158225793Y-101737231D01*
X158213935Y-101742510D01*
X157932966Y-101850363D01*
X157920623Y-101854374D01*
X157629902Y-101932273D01*
X157617205Y-101934971D01*
X157319953Y-101982050D01*
X157307046Y-101983407D01*
X157003244Y-101999330D01*
X156996754Y-101999500D01*
X135084783Y-101999500D01*
X135017744Y-101979815D01*
X134971989Y-101927011D01*
X134962045Y-101857853D01*
X134967741Y-101834546D01*
X134971591Y-101823539D01*
X134976237Y-101810264D01*
X134991100Y-101678354D01*
X134991100Y-99304046D01*
X134985742Y-99256494D01*
X134976238Y-99172138D01*
X134957752Y-99119309D01*
X134917719Y-99004900D01*
X134823455Y-98854879D01*
X134780757Y-98812181D01*
X134747272Y-98750858D01*
X134752256Y-98681166D01*
X134794128Y-98625233D01*
X134859592Y-98600816D01*
X134868438Y-98600500D01*
X137818731Y-98600500D01*
X137818747Y-98600501D01*
X137826343Y-98600501D01*
X137984454Y-98600501D01*
X137984457Y-98600501D01*
X138137185Y-98559577D01*
X138187304Y-98530639D01*
X138274116Y-98480520D01*
X138385920Y-98368716D01*
X138385920Y-98368714D01*
X138396128Y-98358507D01*
X138396130Y-98358504D01*
X146385271Y-90369362D01*
X146446592Y-90335879D01*
X146516284Y-90340863D01*
X146572217Y-90382735D01*
X146596634Y-90448199D01*
X146595423Y-90476442D01*
X146571000Y-90630645D01*
X146571000Y-90859353D01*
X146606778Y-91085246D01*
X146606778Y-91085249D01*
X146677450Y-91302755D01*
X146677452Y-91302758D01*
X146781283Y-91506538D01*
X146915714Y-91691566D01*
X147077434Y-91853286D01*
X147121440Y-91885258D01*
X147162362Y-91914990D01*
X147205028Y-91970320D01*
X147211007Y-92039933D01*
X147190242Y-92079285D01*
X147188899Y-92096347D01*
X147853765Y-92761212D01*
X147811708Y-92772482D01*
X147686292Y-92844890D01*
X147583890Y-92947292D01*
X147511482Y-93072708D01*
X147500212Y-93114765D01*
X146835347Y-92449899D01*
X146835346Y-92449900D01*
X146781713Y-92523719D01*
X146677917Y-92727431D01*
X146607265Y-92944874D01*
X146607265Y-92944875D01*
X146571500Y-93170686D01*
X146571500Y-93399313D01*
X146607265Y-93625124D01*
X146607265Y-93625125D01*
X146677917Y-93842568D01*
X146781711Y-94046276D01*
X146835347Y-94120098D01*
X146835347Y-94120099D01*
X147500212Y-93455234D01*
X147511482Y-93497292D01*
X147583890Y-93622708D01*
X147686292Y-93725110D01*
X147811708Y-93797518D01*
X147853765Y-93808787D01*
X147196832Y-94465718D01*
X147210844Y-94527628D01*
X147209201Y-94553645D01*
X147211433Y-94579626D01*
X147207036Y-94587958D01*
X147206443Y-94597359D01*
X147190992Y-94618362D01*
X147190196Y-94619871D01*
X147188899Y-94636347D01*
X147853765Y-95301212D01*
X147811708Y-95312482D01*
X147686292Y-95384890D01*
X147583890Y-95487292D01*
X147511482Y-95612708D01*
X147500212Y-95654765D01*
X146835347Y-94989899D01*
X146835346Y-94989900D01*
X146781713Y-95063719D01*
X146677917Y-95267431D01*
X146607265Y-95484874D01*
X146607265Y-95484875D01*
X146571500Y-95710686D01*
X146571500Y-95939313D01*
X146607265Y-96165124D01*
X146607265Y-96165125D01*
X146677917Y-96382568D01*
X146781711Y-96586276D01*
X146835347Y-96660098D01*
X146835347Y-96660099D01*
X147500212Y-95995234D01*
X147511482Y-96037292D01*
X147583890Y-96162708D01*
X147686292Y-96265110D01*
X147811708Y-96337518D01*
X147853765Y-96348787D01*
X147188899Y-97013651D01*
X147262725Y-97067288D01*
X147262731Y-97067292D01*
X147466431Y-97171082D01*
X147683875Y-97241734D01*
X147909687Y-97277500D01*
X148138313Y-97277500D01*
X148364124Y-97241734D01*
X148364125Y-97241734D01*
X148581568Y-97171082D01*
X148785276Y-97067288D01*
X148859098Y-97013651D01*
X148194234Y-96348787D01*
X148236292Y-96337518D01*
X148361708Y-96265110D01*
X148464110Y-96162708D01*
X148536518Y-96037292D01*
X148547787Y-95995235D01*
X149212651Y-96660099D01*
X149212651Y-96660098D01*
X149266288Y-96586276D01*
X149370082Y-96382568D01*
X149440734Y-96165125D01*
X149440734Y-96165124D01*
X149476500Y-95939313D01*
X149476500Y-95852486D01*
X153249500Y-95852486D01*
X153249500Y-96147513D01*
X153264983Y-96265110D01*
X153288007Y-96439993D01*
X153346357Y-96657759D01*
X153364361Y-96724951D01*
X153364364Y-96724961D01*
X153477254Y-96997500D01*
X153477258Y-96997510D01*
X153624761Y-97252993D01*
X153804352Y-97487040D01*
X153804358Y-97487047D01*
X154012952Y-97695641D01*
X154012959Y-97695647D01*
X154247006Y-97875238D01*
X154502489Y-98022741D01*
X154502490Y-98022741D01*
X154502493Y-98022743D01*
X154775048Y-98135639D01*
X155060007Y-98211993D01*
X155352494Y-98250500D01*
X155352501Y-98250500D01*
X155647499Y-98250500D01*
X155647506Y-98250500D01*
X155939993Y-98211993D01*
X156224952Y-98135639D01*
X156497507Y-98022743D01*
X156752994Y-97875238D01*
X156987042Y-97695646D01*
X157195646Y-97487042D01*
X157375238Y-97252994D01*
X157522743Y-96997507D01*
X157635639Y-96724952D01*
X157711993Y-96439993D01*
X157750500Y-96147506D01*
X157750500Y-95852494D01*
X157711993Y-95560007D01*
X157635639Y-95275048D01*
X157522743Y-95002493D01*
X157515472Y-94989900D01*
X157375238Y-94747006D01*
X157195647Y-94512959D01*
X157195641Y-94512952D01*
X156987047Y-94304358D01*
X156987040Y-94304352D01*
X156752993Y-94124761D01*
X156497510Y-93977258D01*
X156497500Y-93977254D01*
X156224961Y-93864364D01*
X156224954Y-93864362D01*
X156224952Y-93864361D01*
X155939993Y-93788007D01*
X155891113Y-93781571D01*
X155647513Y-93749500D01*
X155647506Y-93749500D01*
X155352494Y-93749500D01*
X155352486Y-93749500D01*
X155074085Y-93786153D01*
X155060007Y-93788007D01*
X154884626Y-93835000D01*
X154775048Y-93864361D01*
X154775038Y-93864364D01*
X154502499Y-93977254D01*
X154502489Y-93977258D01*
X154247006Y-94124761D01*
X154012959Y-94304352D01*
X154012952Y-94304358D01*
X153804358Y-94512952D01*
X153804352Y-94512959D01*
X153624761Y-94747006D01*
X153477258Y-95002489D01*
X153477254Y-95002499D01*
X153364364Y-95275038D01*
X153364361Y-95275048D01*
X153308139Y-95484875D01*
X153288008Y-95560004D01*
X153288006Y-95560015D01*
X153249500Y-95852486D01*
X149476500Y-95852486D01*
X149476500Y-95710686D01*
X149440734Y-95484875D01*
X149440734Y-95484874D01*
X149370082Y-95267431D01*
X149266292Y-95063731D01*
X149266288Y-95063725D01*
X149212651Y-94989900D01*
X149212651Y-94989899D01*
X148547786Y-95654763D01*
X148536518Y-95612708D01*
X148464110Y-95487292D01*
X148361708Y-95384890D01*
X148236292Y-95312482D01*
X148194233Y-95301212D01*
X148859099Y-94636347D01*
X148857793Y-94619765D01*
X148842543Y-94599988D01*
X148836564Y-94530374D01*
X148857802Y-94490120D01*
X148859098Y-94473651D01*
X148194234Y-93808787D01*
X148236292Y-93797518D01*
X148361708Y-93725110D01*
X148464110Y-93622708D01*
X148536518Y-93497292D01*
X148547787Y-93455235D01*
X149212651Y-94120099D01*
X149212651Y-94120098D01*
X149266288Y-94046276D01*
X149370082Y-93842568D01*
X149440734Y-93625125D01*
X149440734Y-93625124D01*
X149476500Y-93399313D01*
X149476500Y-93170686D01*
X149440734Y-92944875D01*
X149440734Y-92944874D01*
X149370082Y-92727431D01*
X149266292Y-92523731D01*
X149266288Y-92523725D01*
X149212651Y-92449900D01*
X149212651Y-92449899D01*
X148547786Y-93114763D01*
X148536518Y-93072708D01*
X148464110Y-92947292D01*
X148361708Y-92844890D01*
X148236292Y-92772482D01*
X148194233Y-92761212D01*
X148859099Y-92096347D01*
X148857772Y-92079493D01*
X148842970Y-92060297D01*
X148836991Y-91990683D01*
X148869597Y-91928888D01*
X148885633Y-91914993D01*
X148970566Y-91853286D01*
X149132286Y-91691566D01*
X149266717Y-91506538D01*
X149370548Y-91302758D01*
X149441222Y-91085245D01*
X149477000Y-90859354D01*
X149477000Y-90630646D01*
X149441222Y-90404755D01*
X149441221Y-90404751D01*
X149441221Y-90404750D01*
X149370549Y-90187244D01*
X149344253Y-90135635D01*
X149266717Y-89983462D01*
X149132286Y-89798434D01*
X148970566Y-89636714D01*
X148903539Y-89588016D01*
X148860876Y-89532688D01*
X148854897Y-89463075D01*
X148887503Y-89401280D01*
X148903536Y-89387385D01*
X148970566Y-89338686D01*
X149132286Y-89176966D01*
X149266717Y-88991938D01*
X149370548Y-88788158D01*
X149391085Y-88724951D01*
X149441221Y-88570649D01*
X149441221Y-88570648D01*
X149441222Y-88570645D01*
X149477000Y-88344754D01*
X149477000Y-88116046D01*
X149441222Y-87890155D01*
X149441221Y-87890153D01*
X149440118Y-87886757D01*
X149440117Y-87886755D01*
X149440117Y-87886753D01*
X149428983Y-87852486D01*
X153249500Y-87852486D01*
X153249500Y-88147513D01*
X153273290Y-88328209D01*
X153288007Y-88439993D01*
X153360888Y-88711991D01*
X153364361Y-88724951D01*
X153364364Y-88724961D01*
X153477254Y-88997500D01*
X153477258Y-88997510D01*
X153624761Y-89252993D01*
X153804352Y-89487040D01*
X153804358Y-89487047D01*
X154012952Y-89695641D01*
X154012959Y-89695647D01*
X154247006Y-89875238D01*
X154502489Y-90022741D01*
X154502490Y-90022741D01*
X154502493Y-90022743D01*
X154775048Y-90135639D01*
X155060007Y-90211993D01*
X155352494Y-90250500D01*
X155352501Y-90250500D01*
X155647499Y-90250500D01*
X155647506Y-90250500D01*
X155939993Y-90211993D01*
X156224952Y-90135639D01*
X156497507Y-90022743D01*
X156752994Y-89875238D01*
X156987042Y-89695646D01*
X157195646Y-89487042D01*
X157375238Y-89252994D01*
X157522743Y-88997507D01*
X157635639Y-88724952D01*
X157711993Y-88439993D01*
X157750500Y-88147506D01*
X157750500Y-87852494D01*
X157711993Y-87560007D01*
X157635639Y-87275048D01*
X157522743Y-87002493D01*
X157514192Y-86987683D01*
X157375238Y-86747006D01*
X157195647Y-86512959D01*
X157195641Y-86512952D01*
X156987047Y-86304358D01*
X156987040Y-86304352D01*
X156752993Y-86124761D01*
X156497510Y-85977258D01*
X156497500Y-85977254D01*
X156224961Y-85864364D01*
X156224954Y-85864362D01*
X156224952Y-85864361D01*
X155939993Y-85788007D01*
X155891113Y-85781571D01*
X155647513Y-85749500D01*
X155647506Y-85749500D01*
X155352494Y-85749500D01*
X155352486Y-85749500D01*
X155074085Y-85786153D01*
X155060007Y-85788007D01*
X154829790Y-85849693D01*
X154775048Y-85864361D01*
X154775038Y-85864364D01*
X154502499Y-85977254D01*
X154502489Y-85977258D01*
X154247006Y-86124761D01*
X154012959Y-86304352D01*
X154012952Y-86304358D01*
X153804358Y-86512952D01*
X153804352Y-86512959D01*
X153624761Y-86747006D01*
X153477258Y-87002489D01*
X153477254Y-87002499D01*
X153364364Y-87275038D01*
X153364361Y-87275048D01*
X153301330Y-87510287D01*
X153288008Y-87560004D01*
X153288006Y-87560015D01*
X153249500Y-87852486D01*
X149428983Y-87852486D01*
X149370549Y-87672644D01*
X149357848Y-87647716D01*
X149266717Y-87468862D01*
X149132286Y-87283834D01*
X148970566Y-87122114D01*
X148785538Y-86987683D01*
X148691941Y-86939993D01*
X148581755Y-86883850D01*
X148364248Y-86813178D01*
X148194826Y-86786344D01*
X148138354Y-86777400D01*
X147909646Y-86777400D01*
X147834349Y-86789326D01*
X147683753Y-86813178D01*
X147683750Y-86813178D01*
X147466244Y-86883850D01*
X147262461Y-86987683D01*
X147156896Y-87064380D01*
X147077434Y-87122114D01*
X147077432Y-87122116D01*
X147077431Y-87122116D01*
X146915716Y-87283831D01*
X146915716Y-87283832D01*
X146915714Y-87283834D01*
X146882086Y-87330119D01*
X146781283Y-87468861D01*
X146677450Y-87672644D01*
X146606778Y-87890150D01*
X146606778Y-87890153D01*
X146571000Y-88116046D01*
X146571000Y-88344754D01*
X146580314Y-88403564D01*
X146571358Y-88472858D01*
X146545521Y-88510642D01*
X137692984Y-97363181D01*
X137631661Y-97396666D01*
X137605303Y-97399500D01*
X127086670Y-97399500D01*
X127086654Y-97399499D01*
X127079058Y-97399499D01*
X126920943Y-97399499D01*
X126768215Y-97440423D01*
X126687469Y-97487042D01*
X126631281Y-97519482D01*
X125625134Y-98525631D01*
X125563811Y-98559116D01*
X125537453Y-98561950D01*
X125198725Y-98561950D01*
X125066821Y-98576811D01*
X124899582Y-98635331D01*
X124749561Y-98729595D01*
X124725903Y-98753254D01*
X124664580Y-98786739D01*
X124594888Y-98781755D01*
X124550541Y-98753254D01*
X124526882Y-98729595D01*
X124376861Y-98635331D01*
X124209622Y-98576811D01*
X124077719Y-98561950D01*
X124077715Y-98561950D01*
X122655907Y-98561950D01*
X122655903Y-98561950D01*
X122523999Y-98576811D01*
X122356760Y-98635331D01*
X122206739Y-98729595D01*
X122183081Y-98753254D01*
X122121758Y-98786739D01*
X122052066Y-98781755D01*
X122007719Y-98753254D01*
X121984060Y-98729595D01*
X121834039Y-98635331D01*
X121666800Y-98576811D01*
X121534897Y-98561950D01*
X121534893Y-98561950D01*
X120113085Y-98561950D01*
X120113081Y-98561950D01*
X119981177Y-98576811D01*
X119813938Y-98635331D01*
X119663917Y-98729595D01*
X119640259Y-98753254D01*
X119578936Y-98786739D01*
X119509244Y-98781755D01*
X119464897Y-98753254D01*
X119441238Y-98729595D01*
X119291217Y-98635331D01*
X119123978Y-98576811D01*
X118992075Y-98561950D01*
X118992071Y-98561950D01*
X117570263Y-98561950D01*
X117570259Y-98561950D01*
X117438355Y-98576811D01*
X117271116Y-98635331D01*
X117121092Y-98729597D01*
X117121090Y-98729598D01*
X117097432Y-98753256D01*
X117036108Y-98786739D01*
X116966416Y-98781752D01*
X116922073Y-98753253D01*
X116898415Y-98729595D01*
X116748394Y-98635331D01*
X116581155Y-98576811D01*
X116449252Y-98561950D01*
X116449248Y-98561950D01*
X115027440Y-98561950D01*
X115027436Y-98561950D01*
X114895532Y-98576811D01*
X114728293Y-98635331D01*
X114578272Y-98729595D01*
X114554614Y-98753254D01*
X114493291Y-98786739D01*
X114423599Y-98781755D01*
X114379252Y-98753254D01*
X114355593Y-98729595D01*
X114205572Y-98635331D01*
X114038333Y-98576811D01*
X113906430Y-98561950D01*
X113906426Y-98561950D01*
X112484618Y-98561950D01*
X112484614Y-98561950D01*
X112352710Y-98576811D01*
X112185471Y-98635331D01*
X112035450Y-98729595D01*
X112011792Y-98753254D01*
X111950469Y-98786739D01*
X111880777Y-98781755D01*
X111836430Y-98753254D01*
X111812771Y-98729595D01*
X111662750Y-98635331D01*
X111495511Y-98576811D01*
X111363608Y-98561950D01*
X111363604Y-98561950D01*
X109941796Y-98561950D01*
X109941792Y-98561950D01*
X109809888Y-98576811D01*
X109642649Y-98635331D01*
X109492628Y-98729595D01*
X109367345Y-98854878D01*
X109273081Y-99004899D01*
X109214561Y-99172138D01*
X109199700Y-99304041D01*
X109199700Y-101678358D01*
X109214562Y-101810262D01*
X109223059Y-101834546D01*
X109226620Y-101904325D01*
X109191891Y-101964952D01*
X109129897Y-101997179D01*
X109106017Y-101999500D01*
X87503246Y-101999500D01*
X87496756Y-101999330D01*
X87192953Y-101983407D01*
X87180046Y-101982050D01*
X86882794Y-101934971D01*
X86870097Y-101932273D01*
X86579376Y-101854374D01*
X86567033Y-101850363D01*
X86286064Y-101742510D01*
X86274206Y-101737231D01*
X86006036Y-101600591D01*
X85994796Y-101594101D01*
X85742391Y-101430187D01*
X85731890Y-101422558D01*
X85497989Y-101233149D01*
X85488344Y-101224464D01*
X85275535Y-101011655D01*
X85266850Y-101002010D01*
X85077441Y-100768109D01*
X85069812Y-100757608D01*
X84905896Y-100505199D01*
X84899408Y-100493963D01*
X84762768Y-100225793D01*
X84757489Y-100213935D01*
X84649636Y-99932966D01*
X84645625Y-99920623D01*
X84644626Y-99916895D01*
X84567724Y-99629896D01*
X84565028Y-99617205D01*
X84517949Y-99319953D01*
X84516592Y-99307046D01*
X84500670Y-99003254D01*
X84500500Y-98996997D01*
X84500500Y-98996753D01*
X84500500Y-98934108D01*
X84500381Y-98933666D01*
X84497548Y-97352486D01*
X86749500Y-97352486D01*
X86749500Y-97647513D01*
X86766400Y-97775876D01*
X86788007Y-97939993D01*
X86840429Y-98135635D01*
X86864361Y-98224951D01*
X86864364Y-98224961D01*
X86977254Y-98497500D01*
X86977258Y-98497510D01*
X87124761Y-98752993D01*
X87304352Y-98987040D01*
X87304358Y-98987047D01*
X87512952Y-99195641D01*
X87512959Y-99195647D01*
X87747006Y-99375238D01*
X88002489Y-99522741D01*
X88002490Y-99522741D01*
X88002493Y-99522743D01*
X88213296Y-99610060D01*
X88261197Y-99629902D01*
X88275048Y-99635639D01*
X88560007Y-99711993D01*
X88852494Y-99750500D01*
X88852501Y-99750500D01*
X89147499Y-99750500D01*
X89147506Y-99750500D01*
X89439993Y-99711993D01*
X89724952Y-99635639D01*
X89997507Y-99522743D01*
X90252994Y-99375238D01*
X90487042Y-99195646D01*
X90695646Y-98987042D01*
X90875238Y-98752994D01*
X91022743Y-98497507D01*
X91135639Y-98224952D01*
X91211993Y-97939993D01*
X91250500Y-97647506D01*
X91250500Y-97352494D01*
X91211993Y-97060007D01*
X91165169Y-96885258D01*
X99749500Y-96885258D01*
X99749500Y-97114741D01*
X99769628Y-97267621D01*
X99779452Y-97342238D01*
X99805761Y-97440424D01*
X99838842Y-97563887D01*
X99926650Y-97775876D01*
X99926657Y-97775890D01*
X100041392Y-97974617D01*
X100181081Y-98156661D01*
X100181089Y-98156670D01*
X100343330Y-98318911D01*
X100343338Y-98318918D01*
X100525382Y-98458607D01*
X100525385Y-98458608D01*
X100525388Y-98458611D01*
X100724112Y-98573344D01*
X100724117Y-98573346D01*
X100724123Y-98573349D01*
X100790435Y-98600816D01*
X100936113Y-98661158D01*
X101157762Y-98720548D01*
X101385266Y-98750500D01*
X101385273Y-98750500D01*
X101614727Y-98750500D01*
X101614734Y-98750500D01*
X101842238Y-98720548D01*
X102063887Y-98661158D01*
X102275888Y-98573344D01*
X102474612Y-98458611D01*
X102656661Y-98318919D01*
X102656665Y-98318914D01*
X102656670Y-98318911D01*
X102818911Y-98156670D01*
X102818914Y-98156665D01*
X102818919Y-98156661D01*
X102958611Y-97974612D01*
X103073344Y-97775888D01*
X103161158Y-97563887D01*
X103220548Y-97342238D01*
X103250500Y-97114734D01*
X103250500Y-96885266D01*
X103220548Y-96657762D01*
X103161158Y-96436113D01*
X103073344Y-96224112D01*
X102958611Y-96025388D01*
X102958608Y-96025385D01*
X102958607Y-96025382D01*
X102857764Y-95893962D01*
X102818919Y-95843339D01*
X102818918Y-95843338D01*
X102818911Y-95843330D01*
X102656670Y-95681089D01*
X102656661Y-95681081D01*
X102474617Y-95541392D01*
X102275890Y-95426657D01*
X102275876Y-95426650D01*
X102063887Y-95338842D01*
X101842238Y-95279452D01*
X101804215Y-95274446D01*
X101614741Y-95249500D01*
X101614734Y-95249500D01*
X101385266Y-95249500D01*
X101385258Y-95249500D01*
X101168715Y-95278009D01*
X101157762Y-95279452D01*
X101064076Y-95304554D01*
X100936112Y-95338842D01*
X100724123Y-95426650D01*
X100724109Y-95426657D01*
X100525382Y-95541392D01*
X100343338Y-95681081D01*
X100181081Y-95843338D01*
X100041392Y-96025382D01*
X99926657Y-96224109D01*
X99926650Y-96224123D01*
X99838842Y-96436112D01*
X99779453Y-96657759D01*
X99779451Y-96657770D01*
X99749500Y-96885258D01*
X91165169Y-96885258D01*
X91135639Y-96775048D01*
X91022743Y-96502493D01*
X90953504Y-96382568D01*
X90875238Y-96247006D01*
X90695647Y-96012959D01*
X90695641Y-96012952D01*
X90487047Y-95804358D01*
X90487040Y-95804352D01*
X90252993Y-95624761D01*
X89997510Y-95477258D01*
X89997500Y-95477254D01*
X89724961Y-95364364D01*
X89724954Y-95364362D01*
X89724952Y-95364361D01*
X89439993Y-95288007D01*
X89375012Y-95279452D01*
X89147513Y-95249500D01*
X89147506Y-95249500D01*
X88852494Y-95249500D01*
X88852486Y-95249500D01*
X88574085Y-95286153D01*
X88560007Y-95288007D01*
X88370287Y-95338842D01*
X88275048Y-95364361D01*
X88275038Y-95364364D01*
X88002499Y-95477254D01*
X88002489Y-95477258D01*
X87747006Y-95624761D01*
X87512959Y-95804352D01*
X87512952Y-95804358D01*
X87304358Y-96012952D01*
X87304352Y-96012959D01*
X87124761Y-96247006D01*
X86977258Y-96502489D01*
X86977254Y-96502499D01*
X86864364Y-96775038D01*
X86864361Y-96775048D01*
X86815157Y-96958683D01*
X86788008Y-97060004D01*
X86788006Y-97060015D01*
X86749500Y-97352486D01*
X84497548Y-97352486D01*
X84487754Y-91885258D01*
X99749500Y-91885258D01*
X99749500Y-92114741D01*
X99760462Y-92198000D01*
X99779452Y-92342238D01*
X99808300Y-92449900D01*
X99838842Y-92563887D01*
X99926650Y-92775876D01*
X99926657Y-92775890D01*
X100041392Y-92974617D01*
X100181081Y-93156661D01*
X100181089Y-93156670D01*
X100343330Y-93318911D01*
X100343338Y-93318918D01*
X100525382Y-93458607D01*
X100525385Y-93458608D01*
X100525388Y-93458611D01*
X100724112Y-93573344D01*
X100724117Y-93573346D01*
X100724123Y-93573349D01*
X100815480Y-93611190D01*
X100936113Y-93661158D01*
X101157762Y-93720548D01*
X101385266Y-93750500D01*
X101385273Y-93750500D01*
X101614727Y-93750500D01*
X101614734Y-93750500D01*
X101842238Y-93720548D01*
X102063887Y-93661158D01*
X102275888Y-93573344D01*
X102474612Y-93458611D01*
X102656661Y-93318919D01*
X102656665Y-93318914D01*
X102656670Y-93318911D01*
X102818911Y-93156670D01*
X102818914Y-93156665D01*
X102818919Y-93156661D01*
X102958611Y-92974612D01*
X103073344Y-92775888D01*
X103161158Y-92563887D01*
X103220548Y-92342238D01*
X103250500Y-92114734D01*
X103250500Y-91885266D01*
X103220548Y-91657762D01*
X103161158Y-91436113D01*
X103073344Y-91224112D01*
X102958611Y-91025388D01*
X102958608Y-91025385D01*
X102958607Y-91025382D01*
X102818918Y-90843338D01*
X102818911Y-90843330D01*
X102656670Y-90681089D01*
X102656661Y-90681081D01*
X102624035Y-90656046D01*
X105571000Y-90656046D01*
X105571000Y-90884753D01*
X105606778Y-91110646D01*
X105606778Y-91110649D01*
X105677450Y-91328155D01*
X105677452Y-91328158D01*
X105781283Y-91531938D01*
X105915714Y-91716966D01*
X106077434Y-91878686D01*
X106146531Y-91928888D01*
X106179418Y-91952782D01*
X106222083Y-92008113D01*
X106228062Y-92077726D01*
X106195456Y-92139521D01*
X106179418Y-92153418D01*
X106077432Y-92227515D01*
X105915716Y-92389231D01*
X105915716Y-92389232D01*
X105915714Y-92389234D01*
X105857980Y-92468696D01*
X105781283Y-92574261D01*
X105677450Y-92778044D01*
X105606778Y-92995550D01*
X105606778Y-92995553D01*
X105571000Y-93221446D01*
X105571000Y-93450154D01*
X105578466Y-93497292D01*
X105606778Y-93676046D01*
X105606778Y-93676049D01*
X105677450Y-93893555D01*
X105720099Y-93977258D01*
X105781283Y-94097338D01*
X105915714Y-94282366D01*
X106077434Y-94444086D01*
X106077440Y-94444090D01*
X106144458Y-94492783D01*
X106187124Y-94548113D01*
X106193102Y-94617726D01*
X106160496Y-94679521D01*
X106144458Y-94693417D01*
X106077440Y-94742109D01*
X106077431Y-94742116D01*
X105915716Y-94903831D01*
X105915716Y-94903832D01*
X105915714Y-94903834D01*
X105857980Y-94983296D01*
X105781283Y-95088861D01*
X105677450Y-95292644D01*
X105606778Y-95510150D01*
X105606778Y-95510153D01*
X105571000Y-95736046D01*
X105571000Y-95964753D01*
X105606778Y-96190646D01*
X105606778Y-96190649D01*
X105677450Y-96408155D01*
X105725516Y-96502489D01*
X105781283Y-96611938D01*
X105915714Y-96796966D01*
X106077434Y-96958686D01*
X106262462Y-97093117D01*
X106304902Y-97114741D01*
X106466244Y-97196949D01*
X106683751Y-97267621D01*
X106683752Y-97267621D01*
X106683755Y-97267622D01*
X106909646Y-97303400D01*
X106909647Y-97303400D01*
X107138353Y-97303400D01*
X107138354Y-97303400D01*
X107364245Y-97267622D01*
X107364248Y-97267621D01*
X107364249Y-97267621D01*
X107581755Y-97196949D01*
X107581755Y-97196948D01*
X107581758Y-97196948D01*
X107785538Y-97093117D01*
X107970566Y-96958686D01*
X108132286Y-96796966D01*
X108266717Y-96611938D01*
X108370548Y-96408158D01*
X108422909Y-96247006D01*
X108441221Y-96190649D01*
X108441221Y-96190648D01*
X108441222Y-96190645D01*
X108477000Y-95964754D01*
X108477000Y-95736046D01*
X108441222Y-95510155D01*
X108441221Y-95510151D01*
X108441221Y-95510150D01*
X108370549Y-95292644D01*
X108266716Y-95088861D01*
X108248458Y-95063731D01*
X108132286Y-94903834D01*
X107970566Y-94742114D01*
X107903539Y-94693416D01*
X107860876Y-94638088D01*
X107854897Y-94568475D01*
X107887503Y-94506680D01*
X107903540Y-94492783D01*
X107970566Y-94444086D01*
X108132286Y-94282366D01*
X108266717Y-94097338D01*
X108370548Y-93893558D01*
X108404843Y-93788008D01*
X108441221Y-93676049D01*
X108441221Y-93676048D01*
X108441222Y-93676045D01*
X108477000Y-93450154D01*
X108477000Y-93221446D01*
X108441222Y-92995555D01*
X108441221Y-92995551D01*
X108441221Y-92995550D01*
X108370549Y-92778044D01*
X108370548Y-92778042D01*
X108266717Y-92574262D01*
X108132286Y-92389234D01*
X107970566Y-92227514D01*
X107868579Y-92153416D01*
X107825916Y-92098088D01*
X107819937Y-92028475D01*
X107852543Y-91966680D01*
X107868576Y-91952785D01*
X107970566Y-91878686D01*
X108132286Y-91716966D01*
X108266717Y-91531938D01*
X108370548Y-91328158D01*
X108404351Y-91224123D01*
X108441221Y-91110649D01*
X108441221Y-91110648D01*
X108441222Y-91110645D01*
X108477000Y-90884754D01*
X108477000Y-90656046D01*
X108441222Y-90430155D01*
X108441221Y-90430151D01*
X108441221Y-90430150D01*
X108370549Y-90212644D01*
X108331313Y-90135639D01*
X108266717Y-90008862D01*
X108132286Y-89823834D01*
X107970566Y-89662114D01*
X107935609Y-89636716D01*
X107903114Y-89613106D01*
X107860448Y-89557776D01*
X107855616Y-89501517D01*
X107854614Y-89501439D01*
X107855090Y-89495386D01*
X107854470Y-89488163D01*
X107855867Y-89485514D01*
X107859098Y-89444451D01*
X107194234Y-88779587D01*
X107236292Y-88768318D01*
X107361708Y-88695910D01*
X107464110Y-88593508D01*
X107536518Y-88468092D01*
X107547787Y-88426035D01*
X108212651Y-89090899D01*
X108212651Y-89090898D01*
X108266288Y-89017076D01*
X108370082Y-88813368D01*
X108440734Y-88595925D01*
X108440734Y-88595924D01*
X108476500Y-88370113D01*
X108476500Y-88141486D01*
X108440734Y-87915675D01*
X108440734Y-87915674D01*
X108370082Y-87698231D01*
X108266292Y-87494531D01*
X108266288Y-87494525D01*
X108212651Y-87420700D01*
X108212651Y-87420699D01*
X107547787Y-88085564D01*
X107536518Y-88043508D01*
X107464110Y-87918092D01*
X107361708Y-87815690D01*
X107236292Y-87743282D01*
X107194233Y-87732012D01*
X107859099Y-87067147D01*
X107785276Y-87013511D01*
X107581568Y-86909717D01*
X107364124Y-86839065D01*
X107138313Y-86803300D01*
X106909687Y-86803300D01*
X106683875Y-86839065D01*
X106683874Y-86839065D01*
X106466431Y-86909717D01*
X106262719Y-87013513D01*
X106188900Y-87067146D01*
X106188899Y-87067147D01*
X106853765Y-87732012D01*
X106811708Y-87743282D01*
X106686292Y-87815690D01*
X106583890Y-87918092D01*
X106511482Y-88043508D01*
X106500212Y-88085565D01*
X105835347Y-87420699D01*
X105835346Y-87420700D01*
X105781713Y-87494519D01*
X105677917Y-87698231D01*
X105607265Y-87915674D01*
X105607265Y-87915675D01*
X105571500Y-88141486D01*
X105571500Y-88370113D01*
X105607265Y-88595924D01*
X105607265Y-88595925D01*
X105677917Y-88813368D01*
X105781711Y-89017076D01*
X105835347Y-89090898D01*
X105835347Y-89090899D01*
X106500212Y-88426033D01*
X106511482Y-88468092D01*
X106583890Y-88593508D01*
X106686292Y-88695910D01*
X106811708Y-88768318D01*
X106853765Y-88779587D01*
X106188899Y-89444451D01*
X106193385Y-89501440D01*
X106190459Y-89501670D01*
X106193534Y-89537392D01*
X106160940Y-89599193D01*
X106144885Y-89613108D01*
X106077432Y-89662115D01*
X105915716Y-89823831D01*
X105915716Y-89823832D01*
X105915714Y-89823834D01*
X105878367Y-89875238D01*
X105781283Y-90008861D01*
X105677450Y-90212644D01*
X105606778Y-90430150D01*
X105606778Y-90430153D01*
X105571000Y-90656046D01*
X102624035Y-90656046D01*
X102474617Y-90541392D01*
X102470600Y-90539073D01*
X102313202Y-90448199D01*
X102275890Y-90426657D01*
X102275876Y-90426650D01*
X102063887Y-90338842D01*
X102052829Y-90335879D01*
X101842238Y-90279452D01*
X101804215Y-90274446D01*
X101614741Y-90249500D01*
X101614734Y-90249500D01*
X101385266Y-90249500D01*
X101385258Y-90249500D01*
X101168715Y-90278009D01*
X101157762Y-90279452D01*
X101064076Y-90304554D01*
X100936112Y-90338842D01*
X100724123Y-90426650D01*
X100724109Y-90426657D01*
X100525382Y-90541392D01*
X100343338Y-90681081D01*
X100181081Y-90843338D01*
X100041392Y-91025382D01*
X99926657Y-91224109D01*
X99926650Y-91224123D01*
X99838842Y-91436112D01*
X99779453Y-91657759D01*
X99779451Y-91657770D01*
X99749500Y-91885258D01*
X84487754Y-91885258D01*
X84477842Y-86352486D01*
X86749500Y-86352486D01*
X86749500Y-86647513D01*
X86766601Y-86777400D01*
X86788007Y-86939993D01*
X86858627Y-87203553D01*
X86864361Y-87224951D01*
X86864364Y-87224961D01*
X86977254Y-87497500D01*
X86977258Y-87497510D01*
X87124761Y-87752993D01*
X87304352Y-87987040D01*
X87304358Y-87987047D01*
X87512952Y-88195641D01*
X87512959Y-88195647D01*
X87747006Y-88375238D01*
X88002489Y-88522741D01*
X88002490Y-88522741D01*
X88002493Y-88522743D01*
X88275048Y-88635639D01*
X88560007Y-88711993D01*
X88852494Y-88750500D01*
X88852501Y-88750500D01*
X89147499Y-88750500D01*
X89147506Y-88750500D01*
X89439993Y-88711993D01*
X89724952Y-88635639D01*
X89997507Y-88522743D01*
X90252994Y-88375238D01*
X90487042Y-88195646D01*
X90499297Y-88183391D01*
X90566705Y-88115984D01*
X90695641Y-87987047D01*
X90695646Y-87987042D01*
X90875238Y-87752994D01*
X91022743Y-87497507D01*
X91135639Y-87224952D01*
X91211993Y-86939993D01*
X91238941Y-86735305D01*
X99750000Y-86735305D01*
X99750000Y-86964694D01*
X99750001Y-86964710D01*
X99779942Y-87192137D01*
X99839318Y-87413730D01*
X99927102Y-87625659D01*
X99927106Y-87625669D01*
X100041799Y-87824324D01*
X100041805Y-87824331D01*
X100098381Y-87898064D01*
X100935387Y-87061058D01*
X100940889Y-87081591D01*
X101019881Y-87218408D01*
X101131592Y-87330119D01*
X101268409Y-87409111D01*
X101288940Y-87414612D01*
X100451934Y-88251617D01*
X100451934Y-88251618D01*
X100525666Y-88308194D01*
X100724330Y-88422893D01*
X100724340Y-88422897D01*
X100936269Y-88510681D01*
X101157862Y-88570057D01*
X101385289Y-88599998D01*
X101385306Y-88600000D01*
X101614694Y-88600000D01*
X101614710Y-88599998D01*
X101842137Y-88570057D01*
X102063730Y-88510681D01*
X102275659Y-88422897D01*
X102275668Y-88422893D01*
X102474327Y-88308197D01*
X102474334Y-88308192D01*
X102548064Y-88251617D01*
X101711059Y-87414612D01*
X101731591Y-87409111D01*
X101868408Y-87330119D01*
X101980119Y-87218408D01*
X102059111Y-87081591D01*
X102064612Y-87061059D01*
X102901617Y-87898064D01*
X102958192Y-87824334D01*
X102958197Y-87824327D01*
X103072893Y-87625668D01*
X103072897Y-87625659D01*
X103160681Y-87413730D01*
X103220057Y-87192137D01*
X103232422Y-87098221D01*
X103232422Y-87098220D01*
X103249998Y-86964711D01*
X103250000Y-86964694D01*
X103250000Y-86735305D01*
X103249998Y-86735289D01*
X103220057Y-86507862D01*
X103160681Y-86286269D01*
X103072897Y-86074340D01*
X103072893Y-86074330D01*
X102958194Y-85875666D01*
X102901618Y-85801934D01*
X102901617Y-85801934D01*
X102064612Y-86638939D01*
X102059111Y-86618409D01*
X101980119Y-86481592D01*
X101868408Y-86369881D01*
X101731591Y-86290889D01*
X101711057Y-86285387D01*
X102548064Y-85448381D01*
X102548064Y-85448380D01*
X102474331Y-85391805D01*
X102474324Y-85391799D01*
X102275669Y-85277106D01*
X102275659Y-85277102D01*
X102063730Y-85189318D01*
X101842137Y-85129942D01*
X101614710Y-85100001D01*
X101614694Y-85100000D01*
X101385306Y-85100000D01*
X101385289Y-85100001D01*
X101157862Y-85129942D01*
X100936269Y-85189318D01*
X100724340Y-85277102D01*
X100724330Y-85277106D01*
X100525673Y-85391801D01*
X100525659Y-85391810D01*
X100451934Y-85448380D01*
X101288940Y-86285387D01*
X101268409Y-86290889D01*
X101131592Y-86369881D01*
X101019881Y-86481592D01*
X100940889Y-86618409D01*
X100935387Y-86638940D01*
X100098380Y-85801934D01*
X100041810Y-85875659D01*
X100041801Y-85875673D01*
X99927106Y-86074330D01*
X99927102Y-86074340D01*
X99839318Y-86286269D01*
X99779942Y-86507862D01*
X99750001Y-86735289D01*
X99750000Y-86735305D01*
X91238941Y-86735305D01*
X91250500Y-86647506D01*
X91250500Y-86352494D01*
X91211993Y-86060007D01*
X91135639Y-85775048D01*
X91082536Y-85646845D01*
X91039848Y-85543787D01*
X91022746Y-85502499D01*
X91022741Y-85502489D01*
X90875238Y-85247006D01*
X90695647Y-85012959D01*
X90695641Y-85012952D01*
X90487047Y-84804358D01*
X90487040Y-84804352D01*
X90252993Y-84624761D01*
X89997510Y-84477258D01*
X89997500Y-84477254D01*
X89724961Y-84364364D01*
X89724954Y-84364362D01*
X89724952Y-84364361D01*
X89439993Y-84288007D01*
X89391113Y-84281571D01*
X89147513Y-84249500D01*
X89147506Y-84249500D01*
X88852494Y-84249500D01*
X88852486Y-84249500D01*
X88574085Y-84286153D01*
X88560007Y-84288007D01*
X88300016Y-84357671D01*
X88275048Y-84364361D01*
X88275038Y-84364364D01*
X88002499Y-84477254D01*
X88002489Y-84477258D01*
X87747006Y-84624761D01*
X87512959Y-84804352D01*
X87512952Y-84804358D01*
X87304358Y-85012952D01*
X87304352Y-85012959D01*
X87124761Y-85247006D01*
X86977258Y-85502489D01*
X86977254Y-85502499D01*
X86864364Y-85775038D01*
X86864361Y-85775048D01*
X86810180Y-85977258D01*
X86788008Y-86060004D01*
X86788006Y-86060015D01*
X86749500Y-86352486D01*
X84477842Y-86352486D01*
X84475380Y-84978219D01*
X84475550Y-84971507D01*
X84491468Y-84667830D01*
X84492825Y-84654923D01*
X84497602Y-84624761D01*
X84539908Y-84357661D01*
X84542601Y-84344986D01*
X84620504Y-84054253D01*
X84624514Y-84041915D01*
X84732378Y-83760922D01*
X84737641Y-83749101D01*
X84874296Y-83480904D01*
X84880772Y-83469689D01*
X85044700Y-83217261D01*
X85052314Y-83206780D01*
X85241740Y-82972861D01*
X85250407Y-82963235D01*
X85463235Y-82750407D01*
X85472861Y-82741740D01*
X85706780Y-82552314D01*
X85717261Y-82544700D01*
X85969689Y-82380772D01*
X85980904Y-82374296D01*
X86249101Y-82237641D01*
X86260922Y-82232378D01*
X86541920Y-82124512D01*
X86554253Y-82120504D01*
X86844986Y-82042601D01*
X86857661Y-82039908D01*
X87154926Y-81992824D01*
X87167828Y-81991468D01*
X87471617Y-81975544D01*
X87478147Y-81975375D01*
X109093263Y-81983186D01*
G37*
%TD.AperFunction*%
%TD*%
M02*
